<?xml version="1.0" encoding="UTF-8" standalone="no"?>
<!DOCTYPE svg PUBLIC "-//W3C//DTD SVG 1.1//EN"
 "http://www.w3.org/Graphics/SVG/1.1/DTD/svg11.dtd">
<!-- Generated by graphviz version 2.30.1 (20180420.1509)
 -->
<!-- Title: packages Pages: 1 -->
<svg width="6273pt" height="44pt"
 viewBox="0.00 0.00 6273.00 44.00" xmlns="http://www.w3.org/2000/svg" xmlns:xlink="http://www.w3.org/1999/xlink">
<g id="graph0" class="graph" transform="scale(1 1) rotate(0) translate(4 40)">
<title>packages</title>
<polygon fill="white" stroke="white" points="-4,5 -4,-40 6270,-40 6270,5 -4,5"/>
<!-- 0 -->
<g id="node1" class="node"><title>0</title>
<polygon fill="none" stroke="black" points="200,-36 0,-36 0,-0 200,-0 200,-36"/>
<text text-anchor="middle" x="100" y="-14.3" font-family="Times,serif" font-size="14.00">/opt/OpsManage/utils/__init__.py</text>
</g>
<!-- 1 -->
<g id="node2" class="node"><title>1</title>
<polygon fill="none" stroke="black" points="460,-36 218,-36 218,-0 460,-0 460,-36"/>
<text text-anchor="middle" x="339" y="-14.3" font-family="Times,serif" font-size="14.00">/opt/OpsManage/utils/ansible/__init__.py</text>
</g>
<!-- 2 -->
<g id="node3" class="node"><title>2</title>
<polygon fill="none" stroke="black" points="720,-36 478,-36 478,-0 720,-0 720,-36"/>
<text text-anchor="middle" x="599" y="-14.3" font-family="Times,serif" font-size="14.00">/opt/OpsManage/utils/ansible/callback.py</text>
</g>
<!-- 3 -->
<g id="node4" class="node"><title>3</title>
<polygon fill="none" stroke="black" points="987.5,-36 738.5,-36 738.5,-0 987.5,-0 987.5,-36"/>
<text text-anchor="middle" x="863" y="-14.3" font-family="Times,serif" font-size="14.00">/opt/OpsManage/utils/ansible/inventory.py</text>
</g>
<!-- 4 -->
<g id="node5" class="node"><title>4</title>
<polygon fill="none" stroke="black" points="1238.5,-36 1005.5,-36 1005.5,-0 1238.5,-0 1238.5,-36"/>
<text text-anchor="middle" x="1122" y="-14.3" font-family="Times,serif" font-size="14.00">/opt/OpsManage/utils/ansible/runner.py</text>
</g>
<!-- 5 -->
<g id="node6" class="node"><title>5</title>
<polygon fill="none" stroke="black" points="1445,-36 1257,-36 1257,-0 1445,-0 1445,-36"/>
<text text-anchor="middle" x="1351" y="-14.3" font-family="Times,serif" font-size="14.00">/opt/OpsManage/utils/avatar.py</text>
</g>
<!-- 6 -->
<g id="node7" class="node"><title>6</title>
<polygon fill="none" stroke="black" points="1642.5,-36 1463.5,-36 1463.5,-0 1642.5,-0 1642.5,-36"/>
<text text-anchor="middle" x="1553" y="-14.3" font-family="Times,serif" font-size="14.00">/opt/OpsManage/utils/base.py</text>
</g>
<!-- 7 -->
<g id="node8" class="node"><title>7</title>
<polygon fill="none" stroke="black" points="1901.5,-36 1660.5,-36 1660.5,-0 1901.5,-0 1901.5,-36"/>
<text text-anchor="middle" x="1781" y="-14.3" font-family="Times,serif" font-size="14.00">/opt/OpsManage/utils/deploy/__init__.py</text>
</g>
<!-- 8 -->
<g id="node9" class="node"><title>8</title>
<polygon fill="none" stroke="black" points="2130,-36 1920,-36 1920,-0 2130,-0 2130,-36"/>
<text text-anchor="middle" x="2025" y="-14.3" font-family="Times,serif" font-size="14.00">/opt/OpsManage/utils/deploy/git.py</text>
</g>
<!-- 9 -->
<g id="node10" class="node"><title>9</title>
<polygon fill="none" stroke="black" points="2363.5,-36 2148.5,-36 2148.5,-0 2363.5,-0 2363.5,-36"/>
<text text-anchor="middle" x="2256" y="-14.3" font-family="Times,serif" font-size="14.00">/opt/OpsManage/utils/deploy/svn.py</text>
</g>
<!-- 10 -->
<g id="node11" class="node"><title>10</title>
<polygon fill="none" stroke="black" points="2566,-36 2382,-36 2382,-0 2566,-0 2566,-36"/>
<text text-anchor="middle" x="2474" y="-14.3" font-family="Times,serif" font-size="14.00">/opt/OpsManage/utils/execl.py</text>
</g>
<!-- 11 -->
<g id="node12" class="node"><title>11</title>
<polygon fill="none" stroke="black" points="2774,-36 2584,-36 2584,-0 2774,-0 2774,-36"/>
<text text-anchor="middle" x="2679" y="-14.3" font-family="Times,serif" font-size="14.00">/opt/OpsManage/utils/logger.py</text>
</g>
<!-- 12 -->
<g id="node13" class="node"><title>12</title>
<polygon fill="none" stroke="black" points="3030,-36 2792,-36 2792,-0 3030,-0 3030,-36"/>
<text text-anchor="middle" x="2911" y="-14.3" font-family="Times,serif" font-size="14.00">/opt/OpsManage/utils/mysql/__init__.py</text>
</g>
<!-- 13 -->
<g id="node14" class="node"><title>13</title>
<polygon fill="none" stroke="black" points="3298,-36 3048,-36 3048,-0 3298,-0 3298,-36"/>
<text text-anchor="middle" x="3173" y="-14.3" font-family="Times,serif" font-size="14.00">/opt/OpsManage/utils/mysql/binlog2sql.py</text>
</g>
<!-- 14 -->
<g id="node15" class="node"><title>14</title>
<polygon fill="none" stroke="black" points="3538,-36 3316,-36 3316,-0 3538,-0 3538,-36"/>
<text text-anchor="middle" x="3427" y="-14.3" font-family="Times,serif" font-size="14.00">/opt/OpsManage/utils/mysql/cmds.py</text>
</g>
<!-- 15 -->
<g id="node16" class="node"><title>15</title>
<polygon fill="none" stroke="black" points="3777.5,-36 3556.5,-36 3556.5,-0 3777.5,-0 3777.5,-36"/>
<text text-anchor="middle" x="3667" y="-14.3" font-family="Times,serif" font-size="14.00">/opt/OpsManage/utils/mysql/const.py</text>
</g>
<!-- 16 -->
<g id="node17" class="node"><title>16</title>
<polygon fill="none" stroke="black" points="4038.5,-36 3795.5,-36 3795.5,-0 4038.5,-0 4038.5,-36"/>
<text text-anchor="middle" x="3917" y="-14.3" font-family="Times,serif" font-size="14.00">/opt/OpsManage/utils/mysql/inception.py</text>
</g>
<!-- 17 -->
<g id="node18" class="node"><title>17</title>
<polygon fill="none" stroke="black" points="4293.5,-36 4056.5,-36 4056.5,-0 4293.5,-0 4293.5,-36"/>
<text text-anchor="middle" x="4175" y="-14.3" font-family="Times,serif" font-size="14.00">/opt/OpsManage/utils/notice/__init__.py</text>
</g>
<!-- 18 -->
<g id="node19" class="node"><title>18</title>
<polygon fill="none" stroke="black" points="4528,-36 4312,-36 4312,-0 4528,-0 4528,-36"/>
<text text-anchor="middle" x="4420" y="-14.3" font-family="Times,serif" font-size="14.00">/opt/OpsManage/utils/notice/base.py</text>
</g>
<!-- 19 -->
<g id="node20" class="node"><title>19</title>
<polygon fill="none" stroke="black" points="4782,-36 4546,-36 4546,-0 4782,-0 4782,-36"/>
<text text-anchor="middle" x="4664" y="-14.3" font-family="Times,serif" font-size="14.00">/opt/OpsManage/utils/notice/dingtalk.py</text>
</g>
<!-- 20 -->
<g id="node21" class="node"><title>20</title>
<polygon fill="none" stroke="black" points="5023.5,-36 4800.5,-36 4800.5,-0 5023.5,-0 5023.5,-36"/>
<text text-anchor="middle" x="4912" y="-14.3" font-family="Times,serif" font-size="14.00">/opt/OpsManage/utils/notice/email.py</text>
</g>
<!-- 21 -->
<g id="node22" class="node"><title>21</title>
<polygon fill="none" stroke="black" points="5272,-36 5042,-36 5042,-0 5272,-0 5272,-36"/>
<text text-anchor="middle" x="5157" y="-14.3" font-family="Times,serif" font-size="14.00">/opt/OpsManage/utils/notice/wechat.py</text>
</g>
<!-- 22 -->
<g id="node23" class="node"><title>22</title>
<polygon fill="none" stroke="black" points="5525.5,-36 5290.5,-36 5290.5,-0 5525.5,-0 5525.5,-36"/>
<text text-anchor="middle" x="5408" y="-14.3" font-family="Times,serif" font-size="14.00">/opt/OpsManage/utils/sched/__init__.py</text>
</g>
<!-- 23 -->
<g id="node24" class="node"><title>23</title>
<polygon fill="none" stroke="black" points="5750.5,-36 5543.5,-36 5543.5,-0 5750.5,-0 5750.5,-36"/>
<text text-anchor="middle" x="5647" y="-14.3" font-family="Times,serif" font-size="14.00">/opt/OpsManage/utils/sched/rpc.py</text>
</g>
<!-- 24 -->
<g id="node25" class="node"><title>24</title>
<polygon fill="none" stroke="black" points="6005,-36 5769,-36 5769,-0 6005,-0 6005,-36"/>
<text text-anchor="middle" x="5887" y="-14.3" font-family="Times,serif" font-size="14.00">/opt/OpsManage/utils/secret/__init__.py</text>
</g>
<!-- 25 -->
<g id="node26" class="node"><title>25</title>
<polygon fill="none" stroke="black" points="6265,-36 6023,-36 6023,-0 6265,-0 6265,-36"/>
<text text-anchor="middle" x="6144" y="-14.3" font-family="Times,serif" font-size="14.00">/opt/OpsManage/utils/secret/aescipher.py</text>
</g>
</g>
</svg>
