<?xml version="1.0" encoding="UTF-8" standalone="no"?>
<!DOCTYPE svg PUBLIC "-//W3C//DTD SVG 1.1//EN"
 "http://www.w3.org/Graphics/SVG/1.1/DTD/svg11.dtd">
<!-- Generated by graphviz version 2.30.1 (20180420.1509)
 -->
<!-- Title: packages Pages: 1 -->
<svg width="2154pt" height="44pt"
 viewBox="0.00 0.00 2154.00 44.00" xmlns="http://www.w3.org/2000/svg" xmlns:xlink="http://www.w3.org/1999/xlink">
<g id="graph0" class="graph" transform="scale(1 1) rotate(0) translate(4 40)">
<title>packages</title>
<polygon fill="white" stroke="white" points="-4,5 -4,-40 2151,-40 2151,5 -4,5"/>
<!-- 0 -->
<g id="node1" class="node"><title>0</title>
<polygon fill="none" stroke="black" points="262.5,-36 -0.5,-36 -0.5,-0 262.5,-0 262.5,-36"/>
<text text-anchor="middle" x="131" y="-14.3" font-family="Times,serif" font-size="14.00">/opt/OpsManage/apps/websocket/__init__.py</text>
</g>
<!-- 1 -->
<g id="node2" class="node"><title>1</title>
<polygon fill="none" stroke="black" points="533,-36 281,-36 281,-0 533,-0 533,-36"/>
<text text-anchor="middle" x="407" y="-14.3" font-family="Times,serif" font-size="14.00">/opt/OpsManage/apps/websocket/admin.py</text>
</g>
<!-- 2 -->
<g id="node3" class="node"><title>2</title>
<polygon fill="none" stroke="black" points="793,-36 551,-36 551,-0 793,-0 793,-36"/>
<text text-anchor="middle" x="672" y="-14.3" font-family="Times,serif" font-size="14.00">/opt/OpsManage/apps/websocket/apps.py</text>
</g>
<!-- 3 -->
<g id="node4" class="node"><title>3</title>
<polygon fill="none" stroke="black" points="1087,-36 811,-36 811,-0 1087,-0 1087,-36"/>
<text text-anchor="middle" x="949" y="-14.3" font-family="Times,serif" font-size="14.00">/opt/OpsManage/apps/websocket/consumers.py</text>
</g>
<!-- 4 -->
<g id="node5" class="node"><title>4</title>
<polygon fill="none" stroke="black" points="1362.5,-36 1105.5,-36 1105.5,-0 1362.5,-0 1362.5,-36"/>
<text text-anchor="middle" x="1234" y="-14.3" font-family="Times,serif" font-size="14.00">/opt/OpsManage/apps/websocket/models.py</text>
</g>
<!-- 5 -->
<g id="node6" class="node"><title>5</title>
<polygon fill="none" stroke="black" points="1623,-36 1381,-36 1381,-0 1623,-0 1623,-36"/>
<text text-anchor="middle" x="1502" y="-14.3" font-family="Times,serif" font-size="14.00">/opt/OpsManage/apps/websocket/tests.py</text>
</g>
<!-- 6 -->
<g id="node7" class="node"><title>6</title>
<polygon fill="none" stroke="black" points="1879,-36 1641,-36 1641,-0 1879,-0 1879,-36"/>
<text text-anchor="middle" x="1760" y="-14.3" font-family="Times,serif" font-size="14.00">/opt/OpsManage/apps/websocket/urls.py</text>
</g>
<!-- 7 -->
<g id="node8" class="node"><title>7</title>
<polygon fill="none" stroke="black" points="2146.5,-36 1897.5,-36 1897.5,-0 2146.5,-0 2146.5,-36"/>
<text text-anchor="middle" x="2022" y="-14.3" font-family="Times,serif" font-size="14.00">/opt/OpsManage/apps/websocket/views.py</text>
</g>
</g>
</svg>
