<?xml version="1.0" encoding="UTF-8" standalone="no"?>
<!DOCTYPE svg PUBLIC "-//W3C//DTD SVG 1.1//EN"
 "http://www.w3.org/Graphics/SVG/1.1/DTD/svg11.dtd">
<!-- Generated by graphviz version 2.30.1 (20180420.1509)
 -->
<!-- Title: packages Pages: 1 -->
<svg width="41765pt" height="44pt"
 viewBox="0.00 0.00 41765.00 44.00" xmlns="http://www.w3.org/2000/svg" xmlns:xlink="http://www.w3.org/1999/xlink">
<g id="graph0" class="graph" transform="scale(1 1) rotate(0) translate(4 40)">
<title>packages</title>
<polygon fill="white" stroke="white" points="-4,5 -4,-40 41762,-40 41762,5 -4,5"/>
<!-- 0 -->
<g id="node1" class="node"><title>0</title>
<polygon fill="none" stroke="black" points="202,-36 0,-36 0,-0 202,-0 202,-36"/>
<text text-anchor="middle" x="101" y="-14.3" font-family="Times,serif" font-size="14.00">/opt/OpsManage/apps/__init__.py</text>
</g>
<!-- 1 -->
<g id="node2" class="node"><title>1</title>
<polygon fill="none" stroke="black" points="468,-36 220,-36 220,-0 468,-0 468,-36"/>
<text text-anchor="middle" x="344" y="-14.3" font-family="Times,serif" font-size="14.00">/opt/OpsManage/apps/account/__init__.py</text>
</g>
<!-- 2 -->
<g id="node3" class="node"><title>2</title>
<polygon fill="none" stroke="black" points="723.5,-36 486.5,-36 486.5,-0 723.5,-0 723.5,-36"/>
<text text-anchor="middle" x="605" y="-14.3" font-family="Times,serif" font-size="14.00">/opt/OpsManage/apps/account/admin.py</text>
</g>
<!-- 3 -->
<g id="node4" class="node"><title>3</title>
<polygon fill="none" stroke="black" points="968.5,-36 741.5,-36 741.5,-0 968.5,-0 968.5,-36"/>
<text text-anchor="middle" x="855" y="-14.3" font-family="Times,serif" font-size="14.00">/opt/OpsManage/apps/account/apps.py</text>
</g>
<!-- 4 -->
<g id="node5" class="node"><title>4</title>
<polygon fill="none" stroke="black" points="1239.5,-36 986.5,-36 986.5,-0 1239.5,-0 1239.5,-36"/>
<text text-anchor="middle" x="1113" y="-14.3" font-family="Times,serif" font-size="14.00">/opt/OpsManage/apps/account/backends.py</text>
</g>
<!-- 5 -->
<g id="node6" class="node"><title>5</title>
<polygon fill="none" stroke="black" points="1588,-36 1258,-36 1258,-0 1588,-0 1588,-36"/>
<text text-anchor="middle" x="1423" y="-14.3" font-family="Times,serif" font-size="14.00">/opt/OpsManage/apps/account/migrations/0001_initial.py</text>
</g>
<!-- 6 -->
<g id="node7" class="node"><title>6</title>
<polygon fill="none" stroke="black" points="2022,-36 1606,-36 1606,-0 2022,-0 2022,-36"/>
<text text-anchor="middle" x="1814" y="-14.3" font-family="Times,serif" font-size="14.00">/opt/OpsManage/apps/account/migrations/0002_auto_20200426_0937.py</text>
</g>
<!-- 7 -->
<g id="node8" class="node"><title>7</title>
<polygon fill="none" stroke="black" points="2350,-36 2040,-36 2040,-0 2350,-0 2350,-36"/>
<text text-anchor="middle" x="2195" y="-14.3" font-family="Times,serif" font-size="14.00">/opt/OpsManage/apps/account/migrations/__init__.py</text>
</g>
<!-- 8 -->
<g id="node9" class="node"><title>8</title>
<polygon fill="none" stroke="black" points="2610,-36 2368,-36 2368,-0 2610,-0 2610,-36"/>
<text text-anchor="middle" x="2489" y="-14.3" font-family="Times,serif" font-size="14.00">/opt/OpsManage/apps/account/models.py</text>
</g>
<!-- 9 -->
<g id="node10" class="node"><title>9</title>
<polygon fill="none" stroke="black" points="2851.5,-36 2628.5,-36 2628.5,-0 2851.5,-0 2851.5,-36"/>
<text text-anchor="middle" x="2740" y="-14.3" font-family="Times,serif" font-size="14.00">/opt/OpsManage/apps/account/urls.py</text>
</g>
<!-- 10 -->
<g id="node11" class="node"><title>10</title>
<polygon fill="none" stroke="black" points="3104,-36 2870,-36 2870,-0 3104,-0 3104,-36"/>
<text text-anchor="middle" x="2987" y="-14.3" font-family="Times,serif" font-size="14.00">/opt/OpsManage/apps/account/views.py</text>
</g>
<!-- 11 -->
<g id="node12" class="node"><title>11</title>
<polygon fill="none" stroke="black" points="3344,-36 3122,-36 3122,-0 3344,-0 3344,-36"/>
<text text-anchor="middle" x="3233" y="-14.3" font-family="Times,serif" font-size="14.00">/opt/OpsManage/apps/api/__init__.py</text>
</g>
<!-- 12 -->
<g id="node13" class="node"><title>12</title>
<polygon fill="none" stroke="black" points="3574,-36 3362,-36 3362,-0 3574,-0 3574,-36"/>
<text text-anchor="middle" x="3468" y="-14.3" font-family="Times,serif" font-size="14.00">/opt/OpsManage/apps/api/admin.py</text>
</g>
<!-- 13 -->
<g id="node14" class="node"><title>13</title>
<polygon fill="none" stroke="black" points="3794,-36 3592,-36 3592,-0 3794,-0 3794,-36"/>
<text text-anchor="middle" x="3693" y="-14.3" font-family="Times,serif" font-size="14.00">/opt/OpsManage/apps/api/apps.py</text>
</g>
<!-- 14 -->
<g id="node15" class="node"><title>14</title>
<polygon fill="none" stroke="black" points="4029.5,-36 3812.5,-36 3812.5,-0 4029.5,-0 4029.5,-36"/>
<text text-anchor="middle" x="3921" y="-14.3" font-family="Times,serif" font-size="14.00">/opt/OpsManage/apps/api/models.py</text>
</g>
<!-- 15 -->
<g id="node16" class="node"><title>15</title>
<polygon fill="none" stroke="black" points="4280,-36 4048,-36 4048,-0 4280,-0 4280,-36"/>
<text text-anchor="middle" x="4164" y="-14.3" font-family="Times,serif" font-size="14.00">/opt/OpsManage/apps/api/serializers.py</text>
</g>
<!-- 16 -->
<g id="node17" class="node"><title>16</title>
<polygon fill="none" stroke="black" points="4495.5,-36 4298.5,-36 4298.5,-0 4495.5,-0 4495.5,-36"/>
<text text-anchor="middle" x="4397" y="-14.3" font-family="Times,serif" font-size="14.00">/opt/OpsManage/apps/api/urls.py</text>
</g>
<!-- 17 -->
<g id="node18" class="node"><title>17</title>
<polygon fill="none" stroke="black" points="4722.5,-36 4513.5,-36 4513.5,-0 4722.5,-0 4722.5,-36"/>
<text text-anchor="middle" x="4618" y="-14.3" font-family="Times,serif" font-size="14.00">/opt/OpsManage/apps/api/views.py</text>
</g>
<!-- 18 -->
<g id="node19" class="node"><title>18</title>
<polygon fill="none" stroke="black" points="4997.5,-36 4740.5,-36 4740.5,-0 4997.5,-0 4997.5,-36"/>
<text text-anchor="middle" x="4869" y="-14.3" font-family="Times,serif" font-size="14.00">/opt/OpsManage/apps/api/views/__init__.py</text>
</g>
<!-- 19 -->
<g id="node20" class="node"><title>19</title>
<polygon fill="none" stroke="black" points="5294,-36 5016,-36 5016,-0 5294,-0 5294,-36"/>
<text text-anchor="middle" x="5155" y="-14.3" font-family="Times,serif" font-size="14.00">/opt/OpsManage/apps/api/views/account_api.py</text>
</g>
<!-- 20 -->
<g id="node21" class="node"><title>20</title>
<polygon fill="none" stroke="black" points="5591.5,-36 5312.5,-36 5312.5,-0 5591.5,-0 5591.5,-36"/>
<text text-anchor="middle" x="5452" y="-14.3" font-family="Times,serif" font-size="14.00">/opt/OpsManage/apps/api/views/apscehd_api.py</text>
</g>
<!-- 21 -->
<g id="node22" class="node"><title>21</title>
<polygon fill="none" stroke="black" points="5876.5,-36 5609.5,-36 5609.5,-0 5876.5,-0 5876.5,-36"/>
<text text-anchor="middle" x="5743" y="-14.3" font-family="Times,serif" font-size="14.00">/opt/OpsManage/apps/api/views/assets_api.py</text>
</g>
<!-- 22 -->
<g id="node23" class="node"><title>22</title>
<polygon fill="none" stroke="black" points="6163.5,-36 5894.5,-36 5894.5,-0 6163.5,-0 6163.5,-36"/>
<text text-anchor="middle" x="6029" y="-14.3" font-family="Times,serif" font-size="14.00">/opt/OpsManage/apps/api/views/celery_api.py</text>
</g>
<!-- 23 -->
<g id="node24" class="node"><title>23</title>
<polygon fill="none" stroke="black" points="6440,-36 6182,-36 6182,-0 6440,-0 6440,-36"/>
<text text-anchor="middle" x="6311" y="-14.3" font-family="Times,serif" font-size="14.00">/opt/OpsManage/apps/api/views/cicd_api.py</text>
</g>
<!-- 24 -->
<g id="node25" class="node"><title>24</title>
<polygon fill="none" stroke="black" points="6718,-36 6458,-36 6458,-0 6718,-0 6718,-36"/>
<text text-anchor="middle" x="6588" y="-14.3" font-family="Times,serif" font-size="14.00">/opt/OpsManage/apps/api/views/cron_api.py</text>
</g>
<!-- 25 -->
<g id="node26" class="node"><title>25</title>
<polygon fill="none" stroke="black" points="6985.5,-36 6736.5,-36 6736.5,-0 6985.5,-0 6985.5,-36"/>
<text text-anchor="middle" x="6861" y="-14.3" font-family="Times,serif" font-size="14.00">/opt/OpsManage/apps/api/views/db_api.py</text>
</g>
<!-- 26 -->
<g id="node27" class="node"><title>26</title>
<polygon fill="none" stroke="black" points="7276,-36 7004,-36 7004,-0 7276,-0 7276,-36"/>
<text text-anchor="middle" x="7140" y="-14.3" font-family="Times,serif" font-size="14.00">/opt/OpsManage/apps/api/views/deploy_api.py</text>
</g>
<!-- 27 -->
<g id="node28" class="node"><title>27</title>
<polygon fill="none" stroke="black" points="7553.5,-36 7294.5,-36 7294.5,-0 7553.5,-0 7553.5,-36"/>
<text text-anchor="middle" x="7424" y="-14.3" font-family="Times,serif" font-size="14.00">/opt/OpsManage/apps/api/views/files_api.py</text>
</g>
<!-- 28 -->
<g id="node29" class="node"><title>28</title>
<polygon fill="none" stroke="black" points="7830,-36 7572,-36 7572,-0 7830,-0 7830,-36"/>
<text text-anchor="middle" x="7701" y="-14.3" font-family="Times,serif" font-size="14.00">/opt/OpsManage/apps/api/views/ipvs_api.py</text>
</g>
<!-- 29 -->
<g id="node30" class="node"><title>29</title>
<polygon fill="none" stroke="black" points="8127.5,-36 7848.5,-36 7848.5,-0 8127.5,-0 8127.5,-36"/>
<text text-anchor="middle" x="7988" y="-14.3" font-family="Times,serif" font-size="14.00">/opt/OpsManage/apps/api/views/monitor_api.py</text>
</g>
<!-- 30 -->
<g id="node31" class="node"><title>30</title>
<polygon fill="none" stroke="black" points="8400.5,-36 8145.5,-36 8145.5,-0 8400.5,-0 8400.5,-36"/>
<text text-anchor="middle" x="8273" y="-14.3" font-family="Times,serif" font-size="14.00">/opt/OpsManage/apps/api/views/nav_api.py</text>
</g>
<!-- 31 -->
<g id="node32" class="node"><title>31</title>
<polygon fill="none" stroke="black" points="8687.5,-36 8418.5,-36 8418.5,-0 8687.5,-0 8687.5,-36"/>
<text text-anchor="middle" x="8553" y="-14.3" font-family="Times,serif" font-size="14.00">/opt/OpsManage/apps/api/views/orders_api.py</text>
</g>
<!-- 32 -->
<g id="node33" class="node"><title>32</title>
<polygon fill="none" stroke="black" points="8966,-36 8706,-36 8706,-0 8966,-0 8966,-36"/>
<text text-anchor="middle" x="8836" y="-14.3" font-family="Times,serif" font-size="14.00">/opt/OpsManage/apps/api/views/wiki_api.py</text>
</g>
<!-- 33 -->
<g id="node34" class="node"><title>33</title>
<polygon fill="none" stroke="black" points="9220,-36 8984,-36 8984,-0 9220,-0 9220,-36"/>
<text text-anchor="middle" x="9102" y="-14.3" font-family="Times,serif" font-size="14.00">/opt/OpsManage/apps/apply/__init__.py</text>
</g>
<!-- 34 -->
<g id="node35" class="node"><title>34</title>
<polygon fill="none" stroke="black" points="9492,-36 9238,-36 9238,-0 9492,-0 9492,-36"/>
<text text-anchor="middle" x="9365" y="-14.3" font-family="Times,serif" font-size="14.00">/opt/OpsManage/apps/apply/comsumers.py</text>
</g>
<!-- 35 -->
<g id="node36" class="node"><title>35</title>
<polygon fill="none" stroke="black" points="9772,-36 9510,-36 9510,-0 9772,-0 9772,-36"/>
<text text-anchor="middle" x="9641" y="-14.3" font-family="Times,serif" font-size="14.00">/opt/OpsManage/apps/apply/ipvs/__init__.py</text>
</g>
<!-- 36 -->
<g id="node37" class="node"><title>36</title>
<polygon fill="none" stroke="black" points="10038,-36 9790,-36 9790,-0 10038,-0 10038,-36"/>
<text text-anchor="middle" x="9914" y="-14.3" font-family="Times,serif" font-size="14.00">/opt/OpsManage/apps/apply/ipvs/views.py</text>
</g>
<!-- 37 -->
<g id="node38" class="node"><title>37</title>
<polygon fill="none" stroke="black" points="10314,-36 10056,-36 10056,-0 10314,-0 10314,-36"/>
<text text-anchor="middle" x="10185" y="-14.3" font-family="Times,serif" font-size="14.00">/opt/OpsManage/apps/apply/k8s/__init__.py</text>
</g>
<!-- 38 -->
<g id="node39" class="node"><title>38</title>
<polygon fill="none" stroke="black" points="10577.5,-36 10332.5,-36 10332.5,-0 10577.5,-0 10577.5,-36"/>
<text text-anchor="middle" x="10455" y="-14.3" font-family="Times,serif" font-size="14.00">/opt/OpsManage/apps/apply/k8s/views.py</text>
</g>
<!-- 39 -->
<g id="node40" class="node"><title>39</title>
<polygon fill="none" stroke="black" points="10914,-36 10596,-36 10596,-0 10914,-0 10914,-36"/>
<text text-anchor="middle" x="10755" y="-14.3" font-family="Times,serif" font-size="14.00">/opt/OpsManage/apps/apply/migrations/0001_initial.py</text>
</g>
<!-- 40 -->
<g id="node41" class="node"><title>40</title>
<polygon fill="none" stroke="black" points="11230,-36 10932,-36 10932,-0 11230,-0 11230,-36"/>
<text text-anchor="middle" x="11081" y="-14.3" font-family="Times,serif" font-size="14.00">/opt/OpsManage/apps/apply/migrations/__init__.py</text>
</g>
<!-- 41 -->
<g id="node42" class="node"><title>41</title>
<polygon fill="none" stroke="black" points="11478,-36 11248,-36 11248,-0 11478,-0 11478,-36"/>
<text text-anchor="middle" x="11363" y="-14.3" font-family="Times,serif" font-size="14.00">/opt/OpsManage/apps/apply/models.py</text>
</g>
<!-- 42 -->
<g id="node43" class="node"><title>42</title>
<polygon fill="none" stroke="black" points="11774,-36 11496,-36 11496,-0 11774,-0 11774,-36"/>
<text text-anchor="middle" x="11635" y="-14.3" font-family="Times,serif" font-size="14.00">/opt/OpsManage/apps/apply/service/__init__.py</text>
</g>
<!-- 43 -->
<g id="node44" class="node"><title>43</title>
<polygon fill="none" stroke="black" points="12047.5,-36 11792.5,-36 11792.5,-0 12047.5,-0 12047.5,-36"/>
<text text-anchor="middle" x="11920" y="-14.3" font-family="Times,serif" font-size="14.00">/opt/OpsManage/apps/apply/service/ipvs.py</text>
</g>
<!-- 44 -->
<g id="node45" class="node"><title>44</title>
<polygon fill="none" stroke="black" points="12276.5,-36 12065.5,-36 12065.5,-0 12276.5,-0 12276.5,-36"/>
<text text-anchor="middle" x="12171" y="-14.3" font-family="Times,serif" font-size="14.00">/opt/OpsManage/apps/apply/urls.py</text>
</g>
<!-- 45 -->
<g id="node46" class="node"><title>45</title>
<polygon fill="none" stroke="black" points="12527,-36 12295,-36 12295,-0 12527,-0 12527,-36"/>
<text text-anchor="middle" x="12411" y="-14.3" font-family="Times,serif" font-size="14.00">/opt/OpsManage/apps/asset/__init__.py</text>
</g>
<!-- 46 -->
<g id="node47" class="node"><title>46</title>
<polygon fill="none" stroke="black" points="12766.5,-36 12545.5,-36 12545.5,-0 12766.5,-0 12766.5,-36"/>
<text text-anchor="middle" x="12656" y="-14.3" font-family="Times,serif" font-size="14.00">/opt/OpsManage/apps/asset/admin.py</text>
</g>
<!-- 47 -->
<g id="node48" class="node"><title>47</title>
<polygon fill="none" stroke="black" points="12997,-36 12785,-36 12785,-0 12997,-0 12997,-36"/>
<text text-anchor="middle" x="12891" y="-14.3" font-family="Times,serif" font-size="14.00">/opt/OpsManage/apps/asset/apps.py</text>
</g>
<!-- 48 -->
<g id="node49" class="node"><title>48</title>
<polygon fill="none" stroke="black" points="13329,-36 13015,-36 13015,-0 13329,-0 13329,-36"/>
<text text-anchor="middle" x="13172" y="-14.3" font-family="Times,serif" font-size="14.00">/opt/OpsManage/apps/asset/migrations/0001_initial.py</text>
</g>
<!-- 49 -->
<g id="node50" class="node"><title>49</title>
<polygon fill="none" stroke="black" points="13748.5,-36 13347.5,-36 13347.5,-0 13748.5,-0 13748.5,-36"/>
<text text-anchor="middle" x="13548" y="-14.3" font-family="Times,serif" font-size="14.00">/opt/OpsManage/apps/asset/migrations/0002_auto_20200426_1046.py</text>
</g>
<!-- 50 -->
<g id="node51" class="node"><title>50</title>
<polygon fill="none" stroke="black" points="14061,-36 13767,-36 13767,-0 14061,-0 14061,-36"/>
<text text-anchor="middle" x="13914" y="-14.3" font-family="Times,serif" font-size="14.00">/opt/OpsManage/apps/asset/migrations/__init__.py</text>
</g>
<!-- 51 -->
<g id="node52" class="node"><title>51</title>
<polygon fill="none" stroke="black" points="14306.5,-36 14079.5,-36 14079.5,-0 14306.5,-0 14306.5,-36"/>
<text text-anchor="middle" x="14193" y="-14.3" font-family="Times,serif" font-size="14.00">/opt/OpsManage/apps/asset/models.py</text>
</g>
<!-- 52 -->
<g id="node53" class="node"><title>52</title>
<polygon fill="none" stroke="black" points="14535.5,-36 14324.5,-36 14324.5,-0 14535.5,-0 14535.5,-36"/>
<text text-anchor="middle" x="14430" y="-14.3" font-family="Times,serif" font-size="14.00">/opt/OpsManage/apps/asset/tests.py</text>
</g>
<!-- 53 -->
<g id="node54" class="node"><title>53</title>
<polygon fill="none" stroke="black" points="14760.5,-36 14553.5,-36 14553.5,-0 14760.5,-0 14760.5,-36"/>
<text text-anchor="middle" x="14657" y="-14.3" font-family="Times,serif" font-size="14.00">/opt/OpsManage/apps/asset/urls.py</text>
</g>
<!-- 54 -->
<g id="node55" class="node"><title>54</title>
<polygon fill="none" stroke="black" points="14997,-36 14779,-36 14779,-0 14997,-0 14997,-36"/>
<text text-anchor="middle" x="14888" y="-14.3" font-family="Times,serif" font-size="14.00">/opt/OpsManage/apps/asset/views.py</text>
</g>
<!-- 55 -->
<g id="node56" class="node"><title>55</title>
<polygon fill="none" stroke="black" points="15243,-36 15015,-36 15015,-0 15243,-0 15243,-36"/>
<text text-anchor="middle" x="15129" y="-14.3" font-family="Times,serif" font-size="14.00">/opt/OpsManage/apps/cicd/__init__.py</text>
</g>
<!-- 56 -->
<g id="node57" class="node"><title>56</title>
<polygon fill="none" stroke="black" points="15479,-36 15261,-36 15261,-0 15479,-0 15479,-36"/>
<text text-anchor="middle" x="15370" y="-14.3" font-family="Times,serif" font-size="14.00">/opt/OpsManage/apps/cicd/admin.py</text>
</g>
<!-- 57 -->
<g id="node58" class="node"><title>57</title>
<polygon fill="none" stroke="black" points="15705,-36 15497,-36 15497,-0 15705,-0 15705,-36"/>
<text text-anchor="middle" x="15601" y="-14.3" font-family="Times,serif" font-size="14.00">/opt/OpsManage/apps/cicd/apps.py</text>
</g>
<!-- 58 -->
<g id="node59" class="node"><title>58</title>
<polygon fill="none" stroke="black" points="15969,-36 15723,-36 15723,-0 15969,-0 15969,-36"/>
<text text-anchor="middle" x="15846" y="-14.3" font-family="Times,serif" font-size="14.00">/opt/OpsManage/apps/cicd/comsumers.py</text>
</g>
<!-- 59 -->
<g id="node60" class="node"><title>59</title>
<polygon fill="none" stroke="black" points="16298.5,-36 15987.5,-36 15987.5,-0 16298.5,-0 16298.5,-36"/>
<text text-anchor="middle" x="16143" y="-14.3" font-family="Times,serif" font-size="14.00">/opt/OpsManage/apps/cicd/migrations/0001_initial.py</text>
</g>
<!-- 60 -->
<g id="node61" class="node"><title>60</title>
<polygon fill="none" stroke="black" points="16607,-36 16317,-36 16317,-0 16607,-0 16607,-36"/>
<text text-anchor="middle" x="16462" y="-14.3" font-family="Times,serif" font-size="14.00">/opt/OpsManage/apps/cicd/migrations/__init__.py</text>
</g>
<!-- 61 -->
<g id="node62" class="node"><title>61</title>
<polygon fill="none" stroke="black" points="16848.5,-36 16625.5,-36 16625.5,-0 16848.5,-0 16848.5,-36"/>
<text text-anchor="middle" x="16737" y="-14.3" font-family="Times,serif" font-size="14.00">/opt/OpsManage/apps/cicd/models.py</text>
</g>
<!-- 62 -->
<g id="node63" class="node"><title>62</title>
<polygon fill="none" stroke="black" points="17137,-36 16867,-36 16867,-0 17137,-0 17137,-36"/>
<text text-anchor="middle" x="17002" y="-14.3" font-family="Times,serif" font-size="14.00">/opt/OpsManage/apps/cicd/service/__init__.py</text>
</g>
<!-- 63 -->
<g id="node64" class="node"><title>63</title>
<polygon fill="none" stroke="black" points="17417,-36 17155,-36 17155,-0 17417,-0 17417,-36"/>
<text text-anchor="middle" x="17286" y="-14.3" font-family="Times,serif" font-size="14.00">/opt/OpsManage/apps/cicd/service/deploy.py</text>
</g>
<!-- 64 -->
<g id="node65" class="node"><title>64</title>
<polygon fill="none" stroke="black" points="17683,-36 17435,-36 17435,-0 17683,-0 17683,-36"/>
<text text-anchor="middle" x="17559" y="-14.3" font-family="Times,serif" font-size="14.00">/opt/OpsManage/apps/cicd/service/utils.py</text>
</g>
<!-- 65 -->
<g id="node66" class="node"><title>65</title>
<polygon fill="none" stroke="black" points="17908.5,-36 17701.5,-36 17701.5,-0 17908.5,-0 17908.5,-36"/>
<text text-anchor="middle" x="17805" y="-14.3" font-family="Times,serif" font-size="14.00">/opt/OpsManage/apps/cicd/tests.py</text>
</g>
<!-- 66 -->
<g id="node67" class="node"><title>66</title>
<polygon fill="none" stroke="black" points="18129.5,-36 17926.5,-36 17926.5,-0 18129.5,-0 18129.5,-36"/>
<text text-anchor="middle" x="18028" y="-14.3" font-family="Times,serif" font-size="14.00">/opt/OpsManage/apps/cicd/urls.py</text>
</g>
<!-- 67 -->
<g id="node68" class="node"><title>67</title>
<polygon fill="none" stroke="black" points="18362.5,-36 18147.5,-36 18147.5,-0 18362.5,-0 18362.5,-36"/>
<text text-anchor="middle" x="18255" y="-14.3" font-family="Times,serif" font-size="14.00">/opt/OpsManage/apps/cicd/views.py</text>
</g>
<!-- 68 -->
<g id="node69" class="node"><title>68</title>
<polygon fill="none" stroke="black" points="18637.5,-36 18380.5,-36 18380.5,-0 18637.5,-0 18637.5,-36"/>
<text text-anchor="middle" x="18509" y="-14.3" font-family="Times,serif" font-size="14.00">/opt/OpsManage/apps/databases/__init__.py</text>
</g>
<!-- 69 -->
<g id="node70" class="node"><title>69</title>
<polygon fill="none" stroke="black" points="18902.5,-36 18655.5,-36 18655.5,-0 18902.5,-0 18902.5,-36"/>
<text text-anchor="middle" x="18779" y="-14.3" font-family="Times,serif" font-size="14.00">/opt/OpsManage/apps/databases/admin.py</text>
</g>
<!-- 70 -->
<g id="node71" class="node"><title>70</title>
<polygon fill="none" stroke="black" points="19157.5,-36 18920.5,-36 18920.5,-0 19157.5,-0 19157.5,-36"/>
<text text-anchor="middle" x="19039" y="-14.3" font-family="Times,serif" font-size="14.00">/opt/OpsManage/apps/databases/apps.py</text>
</g>
<!-- 71 -->
<g id="node72" class="node"><title>71</title>
<polygon fill="none" stroke="black" points="19516,-36 19176,-36 19176,-0 19516,-0 19516,-36"/>
<text text-anchor="middle" x="19346" y="-14.3" font-family="Times,serif" font-size="14.00">/opt/OpsManage/apps/databases/migrations/0001_initial.py</text>
</g>
<!-- 72 -->
<g id="node73" class="node"><title>72</title>
<polygon fill="none" stroke="black" points="19960,-36 19534,-36 19534,-0 19960,-0 19960,-36"/>
<text text-anchor="middle" x="19747" y="-14.3" font-family="Times,serif" font-size="14.00">/opt/OpsManage/apps/databases/migrations/0002_auto_20200426_1046.py</text>
</g>
<!-- 73 -->
<g id="node74" class="node"><title>73</title>
<polygon fill="none" stroke="black" points="20298,-36 19978,-36 19978,-0 20298,-0 20298,-36"/>
<text text-anchor="middle" x="20138" y="-14.3" font-family="Times,serif" font-size="14.00">/opt/OpsManage/apps/databases/migrations/__init__.py</text>
</g>
<!-- 74 -->
<g id="node75" class="node"><title>74</title>
<polygon fill="none" stroke="black" points="20568,-36 20316,-36 20316,-0 20568,-0 20568,-36"/>
<text text-anchor="middle" x="20442" y="-14.3" font-family="Times,serif" font-size="14.00">/opt/OpsManage/apps/databases/models.py</text>
</g>
<!-- 75 -->
<g id="node76" class="node"><title>75</title>
<polygon fill="none" stroke="black" points="20822,-36 20586,-36 20586,-0 20822,-0 20822,-36"/>
<text text-anchor="middle" x="20704" y="-14.3" font-family="Times,serif" font-size="14.00">/opt/OpsManage/apps/databases/tests.py</text>
</g>
<!-- 76 -->
<g id="node77" class="node"><title>76</title>
<polygon fill="none" stroke="black" points="21073.5,-36 20840.5,-36 20840.5,-0 21073.5,-0 21073.5,-36"/>
<text text-anchor="middle" x="20957" y="-14.3" font-family="Times,serif" font-size="14.00">/opt/OpsManage/apps/databases/urls.py</text>
</g>
<!-- 77 -->
<g id="node78" class="node"><title>77</title>
<polygon fill="none" stroke="black" points="21336,-36 21092,-36 21092,-0 21336,-0 21336,-36"/>
<text text-anchor="middle" x="21214" y="-14.3" font-family="Times,serif" font-size="14.00">/opt/OpsManage/apps/databases/views.py</text>
</g>
<!-- 78 -->
<g id="node79" class="node"><title>78</title>
<polygon fill="none" stroke="black" points="21596,-36 21354,-36 21354,-0 21596,-0 21596,-36"/>
<text text-anchor="middle" x="21475" y="-14.3" font-family="Times,serif" font-size="14.00">/opt/OpsManage/apps/deploy/__init__.py</text>
</g>
<!-- 79 -->
<g id="node80" class="node"><title>79</title>
<polygon fill="none" stroke="black" points="21846,-36 21614,-36 21614,-0 21846,-0 21846,-36"/>
<text text-anchor="middle" x="21730" y="-14.3" font-family="Times,serif" font-size="14.00">/opt/OpsManage/apps/deploy/admin.py</text>
</g>
<!-- 80 -->
<g id="node81" class="node"><title>80</title>
<polygon fill="none" stroke="black" points="22086,-36 21864,-36 21864,-0 22086,-0 22086,-36"/>
<text text-anchor="middle" x="21975" y="-14.3" font-family="Times,serif" font-size="14.00">/opt/OpsManage/apps/deploy/apps.py</text>
</g>
<!-- 81 -->
<g id="node82" class="node"><title>81</title>
<polygon fill="none" stroke="black" points="22364,-36 22104,-36 22104,-0 22364,-0 22364,-36"/>
<text text-anchor="middle" x="22234" y="-14.3" font-family="Times,serif" font-size="14.00">/opt/OpsManage/apps/deploy/comsumers.py</text>
</g>
<!-- 82 -->
<g id="node83" class="node"><title>82</title>
<polygon fill="none" stroke="black" points="22707.5,-36 22382.5,-36 22382.5,-0 22707.5,-0 22707.5,-36"/>
<text text-anchor="middle" x="22545" y="-14.3" font-family="Times,serif" font-size="14.00">/opt/OpsManage/apps/deploy/migrations/0001_initial.py</text>
</g>
<!-- 83 -->
<g id="node84" class="node"><title>83</title>
<polygon fill="none" stroke="black" points="23030.5,-36 22725.5,-36 22725.5,-0 23030.5,-0 23030.5,-36"/>
<text text-anchor="middle" x="22878" y="-14.3" font-family="Times,serif" font-size="14.00">/opt/OpsManage/apps/deploy/migrations/__init__.py</text>
</g>
<!-- 84 -->
<g id="node85" class="node"><title>84</title>
<polygon fill="none" stroke="black" points="23285.5,-36 23048.5,-36 23048.5,-0 23285.5,-0 23285.5,-36"/>
<text text-anchor="middle" x="23167" y="-14.3" font-family="Times,serif" font-size="14.00">/opt/OpsManage/apps/deploy/models.py</text>
</g>
<!-- 85 -->
<g id="node86" class="node"><title>85</title>
<polygon fill="none" stroke="black" points="23524.5,-36 23303.5,-36 23303.5,-0 23524.5,-0 23524.5,-36"/>
<text text-anchor="middle" x="23414" y="-14.3" font-family="Times,serif" font-size="14.00">/opt/OpsManage/apps/deploy/tests.py</text>
</g>
<!-- 86 -->
<g id="node87" class="node"><title>86</title>
<polygon fill="none" stroke="black" points="23761,-36 23543,-36 23543,-0 23761,-0 23761,-36"/>
<text text-anchor="middle" x="23652" y="-14.3" font-family="Times,serif" font-size="14.00">/opt/OpsManage/apps/deploy/urls.py</text>
</g>
<!-- 87 -->
<g id="node88" class="node"><title>87</title>
<polygon fill="none" stroke="black" points="24008.5,-36 23779.5,-36 23779.5,-0 24008.5,-0 24008.5,-36"/>
<text text-anchor="middle" x="23894" y="-14.3" font-family="Times,serif" font-size="14.00">/opt/OpsManage/apps/deploy/views.py</text>
</g>
<!-- 88 -->
<g id="node89" class="node"><title>88</title>
<polygon fill="none" stroke="black" points="24269.5,-36 24026.5,-36 24026.5,-0 24269.5,-0 24269.5,-36"/>
<text text-anchor="middle" x="24148" y="-14.3" font-family="Times,serif" font-size="14.00">/opt/OpsManage/apps/myapp/__init__.py</text>
</g>
<!-- 89 -->
<g id="node90" class="node"><title>89</title>
<polygon fill="none" stroke="black" points="24520.5,-36 24287.5,-36 24287.5,-0 24520.5,-0 24520.5,-36"/>
<text text-anchor="middle" x="24404" y="-14.3" font-family="Times,serif" font-size="14.00">/opt/OpsManage/apps/myapp/admin.py</text>
</g>
<!-- 90 -->
<g id="node91" class="node"><title>90</title>
<polygon fill="none" stroke="black" points="24761.5,-36 24538.5,-36 24538.5,-0 24761.5,-0 24761.5,-36"/>
<text text-anchor="middle" x="24650" y="-14.3" font-family="Times,serif" font-size="14.00">/opt/OpsManage/apps/myapp/apps.py</text>
</g>
<!-- 91 -->
<g id="node92" class="node"><title>91</title>
<polygon fill="none" stroke="black" points="25084,-36 24780,-36 24780,-0 25084,-0 25084,-36"/>
<text text-anchor="middle" x="24932" y="-14.3" font-family="Times,serif" font-size="14.00">/opt/OpsManage/apps/myapp/binlog2sql/__init__.py</text>
</g>
<!-- 92 -->
<g id="node93" class="node"><title>92</title>
<polygon fill="none" stroke="black" points="25418,-36 25102,-36 25102,-0 25418,-0 25418,-36"/>
<text text-anchor="middle" x="25260" y="-14.3" font-family="Times,serif" font-size="14.00">/opt/OpsManage/apps/myapp/binlog2sql/binlog2sql.py</text>
</g>
<!-- 93 -->
<g id="node94" class="node"><title>93</title>
<polygon fill="none" stroke="black" points="25777.5,-36 25436.5,-36 25436.5,-0 25777.5,-0 25777.5,-36"/>
<text text-anchor="middle" x="25607" y="-14.3" font-family="Times,serif" font-size="14.00">/opt/OpsManage/apps/myapp/binlog2sql/binlog2sql_util.py</text>
</g>
<!-- 94 -->
<g id="node95" class="node"><title>94</title>
<polygon fill="none" stroke="black" points="26122,-36 25796,-36 25796,-0 26122,-0 26122,-36"/>
<text text-anchor="middle" x="25959" y="-14.3" font-family="Times,serif" font-size="14.00">/opt/OpsManage/apps/myapp/migrations/0001_initial.py</text>
</g>
<!-- 95 -->
<g id="node96" class="node"><title>95</title>
<polygon fill="none" stroke="black" points="26445.5,-36 26140.5,-36 26140.5,-0 26445.5,-0 26445.5,-36"/>
<text text-anchor="middle" x="26293" y="-14.3" font-family="Times,serif" font-size="14.00">/opt/OpsManage/apps/myapp/migrations/__init__.py</text>
</g>
<!-- 96 -->
<g id="node97" class="node"><title>96</title>
<polygon fill="none" stroke="black" points="26702,-36 26464,-36 26464,-0 26702,-0 26702,-36"/>
<text text-anchor="middle" x="26583" y="-14.3" font-family="Times,serif" font-size="14.00">/opt/OpsManage/apps/myapp/models.py</text>
</g>
<!-- 97 -->
<g id="node98" class="node"><title>97</title>
<polygon fill="none" stroke="black" points="26929.5,-36 26720.5,-36 26720.5,-0 26929.5,-0 26929.5,-36"/>
<text text-anchor="middle" x="26825" y="-14.3" font-family="Times,serif" font-size="14.00">/opt/OpsManage/apps/myapp/t2.py</text>
</g>
<!-- 98 -->
<g id="node99" class="node"><title>98</title>
<polygon fill="none" stroke="black" points="27172,-36 26948,-36 26948,-0 27172,-0 27172,-36"/>
<text text-anchor="middle" x="27060" y="-14.3" font-family="Times,serif" font-size="14.00">/opt/OpsManage/apps/myapp/test1.py</text>
</g>
<!-- 99 -->
<g id="node100" class="node"><title>99</title>
<polygon fill="none" stroke="black" points="27412,-36 27190,-36 27190,-0 27412,-0 27412,-36"/>
<text text-anchor="middle" x="27301" y="-14.3" font-family="Times,serif" font-size="14.00">/opt/OpsManage/apps/myapp/tests.py</text>
</g>
<!-- 100 -->
<g id="node101" class="node"><title>100</title>
<polygon fill="none" stroke="black" points="27660,-36 27430,-36 27430,-0 27660,-0 27660,-36"/>
<text text-anchor="middle" x="27545" y="-14.3" font-family="Times,serif" font-size="14.00">/opt/OpsManage/apps/myapp/views.py</text>
</g>
<!-- 101 -->
<g id="node102" class="node"><title>101</title>
<polygon fill="none" stroke="black" points="27920,-36 27678,-36 27678,-0 27920,-0 27920,-36"/>
<text text-anchor="middle" x="27799" y="-14.3" font-family="Times,serif" font-size="14.00">/opt/OpsManage/apps/navbar/__init__.py</text>
</g>
<!-- 102 -->
<g id="node103" class="node"><title>102</title>
<polygon fill="none" stroke="black" points="28170,-36 27938,-36 27938,-0 28170,-0 28170,-36"/>
<text text-anchor="middle" x="28054" y="-14.3" font-family="Times,serif" font-size="14.00">/opt/OpsManage/apps/navbar/admin.py</text>
</g>
<!-- 103 -->
<g id="node104" class="node"><title>103</title>
<polygon fill="none" stroke="black" points="28410,-36 28188,-36 28188,-0 28410,-0 28410,-36"/>
<text text-anchor="middle" x="28299" y="-14.3" font-family="Times,serif" font-size="14.00">/opt/OpsManage/apps/navbar/apps.py</text>
</g>
<!-- 104 -->
<g id="node105" class="node"><title>104</title>
<polygon fill="none" stroke="black" points="28753.5,-36 28428.5,-36 28428.5,-0 28753.5,-0 28753.5,-36"/>
<text text-anchor="middle" x="28591" y="-14.3" font-family="Times,serif" font-size="14.00">/opt/OpsManage/apps/navbar/migrations/0001_initial.py</text>
</g>
<!-- 105 -->
<g id="node106" class="node"><title>105</title>
<polygon fill="none" stroke="black" points="29076.5,-36 28771.5,-36 28771.5,-0 29076.5,-0 29076.5,-36"/>
<text text-anchor="middle" x="28924" y="-14.3" font-family="Times,serif" font-size="14.00">/opt/OpsManage/apps/navbar/migrations/__init__.py</text>
</g>
<!-- 106 -->
<g id="node107" class="node"><title>106</title>
<polygon fill="none" stroke="black" points="29331.5,-36 29094.5,-36 29094.5,-0 29331.5,-0 29331.5,-36"/>
<text text-anchor="middle" x="29213" y="-14.3" font-family="Times,serif" font-size="14.00">/opt/OpsManage/apps/navbar/models.py</text>
</g>
<!-- 107 -->
<g id="node108" class="node"><title>107</title>
<polygon fill="none" stroke="black" points="29570.5,-36 29349.5,-36 29349.5,-0 29570.5,-0 29570.5,-36"/>
<text text-anchor="middle" x="29460" y="-14.3" font-family="Times,serif" font-size="14.00">/opt/OpsManage/apps/navbar/tests.py</text>
</g>
<!-- 108 -->
<g id="node109" class="node"><title>108</title>
<polygon fill="none" stroke="black" points="29807,-36 29589,-36 29589,-0 29807,-0 29807,-36"/>
<text text-anchor="middle" x="29698" y="-14.3" font-family="Times,serif" font-size="14.00">/opt/OpsManage/apps/navbar/urls.py</text>
</g>
<!-- 109 -->
<g id="node110" class="node"><title>109</title>
<polygon fill="none" stroke="black" points="30054.5,-36 29825.5,-36 29825.5,-0 30054.5,-0 30054.5,-36"/>
<text text-anchor="middle" x="29940" y="-14.3" font-family="Times,serif" font-size="14.00">/opt/OpsManage/apps/navbar/views.py</text>
</g>
<!-- 110 -->
<g id="node111" class="node"><title>110</title>
<polygon fill="none" stroke="black" points="30311.5,-36 30072.5,-36 30072.5,-0 30311.5,-0 30311.5,-36"/>
<text text-anchor="middle" x="30192" y="-14.3" font-family="Times,serif" font-size="14.00">/opt/OpsManage/apps/orders/__init__.py</text>
</g>
<!-- 111 -->
<g id="node112" class="node"><title>111</title>
<polygon fill="none" stroke="black" points="30558.5,-36 30329.5,-36 30329.5,-0 30558.5,-0 30558.5,-36"/>
<text text-anchor="middle" x="30444" y="-14.3" font-family="Times,serif" font-size="14.00">/opt/OpsManage/apps/orders/admin.py</text>
</g>
<!-- 112 -->
<g id="node113" class="node"><title>112</title>
<polygon fill="none" stroke="black" points="30795.5,-36 30576.5,-36 30576.5,-0 30795.5,-0 30795.5,-36"/>
<text text-anchor="middle" x="30686" y="-14.3" font-family="Times,serif" font-size="14.00">/opt/OpsManage/apps/orders/apps.py</text>
</g>
<!-- 113 -->
<g id="node114" class="node"><title>113</title>
<polygon fill="none" stroke="black" points="31136,-36 30814,-36 30814,-0 31136,-0 31136,-36"/>
<text text-anchor="middle" x="30975" y="-14.3" font-family="Times,serif" font-size="14.00">/opt/OpsManage/apps/orders/migrations/0001_initial.py</text>
</g>
<!-- 114 -->
<g id="node115" class="node"><title>114</title>
<polygon fill="none" stroke="black" points="31562,-36 31154,-36 31154,-0 31562,-0 31562,-36"/>
<text text-anchor="middle" x="31358" y="-14.3" font-family="Times,serif" font-size="14.00">/opt/OpsManage/apps/orders/migrations/0002_auto_20200407_1743.py</text>
</g>
<!-- 115 -->
<g id="node116" class="node"><title>115</title>
<polygon fill="none" stroke="black" points="31988,-36 31580,-36 31580,-0 31988,-0 31988,-36"/>
<text text-anchor="middle" x="31784" y="-14.3" font-family="Times,serif" font-size="14.00">/opt/OpsManage/apps/orders/migrations/0003_auto_20200426_0937.py</text>
</g>
<!-- 116 -->
<g id="node117" class="node"><title>116</title>
<polygon fill="none" stroke="black" points="32308,-36 32006,-36 32006,-0 32308,-0 32308,-36"/>
<text text-anchor="middle" x="32157" y="-14.3" font-family="Times,serif" font-size="14.00">/opt/OpsManage/apps/orders/migrations/__init__.py</text>
</g>
<!-- 117 -->
<g id="node118" class="node"><title>117</title>
<polygon fill="none" stroke="black" points="32560,-36 32326,-36 32326,-0 32560,-0 32560,-36"/>
<text text-anchor="middle" x="32443" y="-14.3" font-family="Times,serif" font-size="14.00">/opt/OpsManage/apps/orders/models.py</text>
</g>
<!-- 118 -->
<g id="node119" class="node"><title>118</title>
<polygon fill="none" stroke="black" points="32796,-36 32578,-36 32578,-0 32796,-0 32796,-36"/>
<text text-anchor="middle" x="32687" y="-14.3" font-family="Times,serif" font-size="14.00">/opt/OpsManage/apps/orders/tests.py</text>
</g>
<!-- 119 -->
<g id="node120" class="node"><title>119</title>
<polygon fill="none" stroke="black" points="33029.5,-36 32814.5,-36 32814.5,-0 33029.5,-0 33029.5,-36"/>
<text text-anchor="middle" x="32922" y="-14.3" font-family="Times,serif" font-size="14.00">/opt/OpsManage/apps/orders/urls.py</text>
</g>
<!-- 120 -->
<g id="node121" class="node"><title>120</title>
<polygon fill="none" stroke="black" points="33274,-36 33048,-36 33048,-0 33274,-0 33274,-36"/>
<text text-anchor="middle" x="33161" y="-14.3" font-family="Times,serif" font-size="14.00">/opt/OpsManage/apps/orders/views.py</text>
</g>
<!-- 121 -->
<g id="node122" class="node"><title>121</title>
<polygon fill="none" stroke="black" points="33528,-36 33292,-36 33292,-0 33528,-0 33528,-36"/>
<text text-anchor="middle" x="33410" y="-14.3" font-family="Times,serif" font-size="14.00">/opt/OpsManage/apps/sched/__init__.py</text>
</g>
<!-- 122 -->
<g id="node123" class="node"><title>122</title>
<polygon fill="none" stroke="black" points="33772,-36 33546,-36 33546,-0 33772,-0 33772,-36"/>
<text text-anchor="middle" x="33659" y="-14.3" font-family="Times,serif" font-size="14.00">/opt/OpsManage/apps/sched/admin.py</text>
</g>
<!-- 123 -->
<g id="node124" class="node"><title>123</title>
<polygon fill="none" stroke="black" points="34006,-36 33790,-36 33790,-0 34006,-0 34006,-36"/>
<text text-anchor="middle" x="33898" y="-14.3" font-family="Times,serif" font-size="14.00">/opt/OpsManage/apps/sched/apps.py</text>
</g>
<!-- 124 -->
<g id="node125" class="node"><title>124</title>
<polygon fill="none" stroke="black" points="34343.5,-36 34024.5,-36 34024.5,-0 34343.5,-0 34343.5,-36"/>
<text text-anchor="middle" x="34184" y="-14.3" font-family="Times,serif" font-size="14.00">/opt/OpsManage/apps/sched/migrations/0001_initial.py</text>
</g>
<!-- 125 -->
<g id="node126" class="node"><title>125</title>
<polygon fill="none" stroke="black" points="34660.5,-36 34361.5,-36 34361.5,-0 34660.5,-0 34660.5,-36"/>
<text text-anchor="middle" x="34511" y="-14.3" font-family="Times,serif" font-size="14.00">/opt/OpsManage/apps/sched/migrations/__init__.py</text>
</g>
<!-- 126 -->
<g id="node127" class="node"><title>126</title>
<polygon fill="none" stroke="black" points="34909.5,-36 34678.5,-36 34678.5,-0 34909.5,-0 34909.5,-36"/>
<text text-anchor="middle" x="34794" y="-14.3" font-family="Times,serif" font-size="14.00">/opt/OpsManage/apps/sched/models.py</text>
</g>
<!-- 127 -->
<g id="node128" class="node"><title>127</title>
<polygon fill="none" stroke="black" points="35140,-36 34928,-36 34928,-0 35140,-0 35140,-36"/>
<text text-anchor="middle" x="35034" y="-14.3" font-family="Times,serif" font-size="14.00">/opt/OpsManage/apps/sched/urls.py</text>
</g>
<!-- 128 -->
<g id="node129" class="node"><title>128</title>
<polygon fill="none" stroke="black" points="35381.5,-36 35158.5,-36 35158.5,-0 35381.5,-0 35381.5,-36"/>
<text text-anchor="middle" x="35270" y="-14.3" font-family="Times,serif" font-size="14.00">/opt/OpsManage/apps/sched/views.py</text>
</g>
<!-- 129 -->
<g id="node130" class="node"><title>129</title>
<polygon fill="none" stroke="black" points="35632.5,-36 35399.5,-36 35399.5,-0 35632.5,-0 35632.5,-36"/>
<text text-anchor="middle" x="35516" y="-14.3" font-family="Times,serif" font-size="14.00">/opt/OpsManage/apps/tasks/__init__.py</text>
</g>
<!-- 130 -->
<g id="node131" class="node"><title>130</title>
<polygon fill="none" stroke="black" points="35883.5,-36 35650.5,-36 35650.5,-0 35883.5,-0 35883.5,-36"/>
<text text-anchor="middle" x="35767" y="-14.3" font-family="Times,serif" font-size="14.00">/opt/OpsManage/apps/tasks/callback.py</text>
</g>
<!-- 131 -->
<g id="node132" class="node"><title>131</title>
<polygon fill="none" stroke="black" points="36160.5,-36 35901.5,-36 35901.5,-0 36160.5,-0 36160.5,-36"/>
<text text-anchor="middle" x="36031" y="-14.3" font-family="Times,serif" font-size="14.00">/opt/OpsManage/apps/tasks/celery_assets.py</text>
</g>
<!-- 132 -->
<g id="node133" class="node"><title>132</title>
<polygon fill="none" stroke="black" points="36443,-36 36179,-36 36179,-0 36443,-0 36443,-36"/>
<text text-anchor="middle" x="36311" y="-14.3" font-family="Times,serif" font-size="14.00">/opt/OpsManage/apps/tasks/celery_deploy.py</text>
</g>
<!-- 133 -->
<g id="node134" class="node"><title>133</title>
<polygon fill="none" stroke="black" points="36721,-36 36461,-36 36461,-0 36721,-0 36721,-36"/>
<text text-anchor="middle" x="36591" y="-14.3" font-family="Times,serif" font-size="14.00">/opt/OpsManage/apps/tasks/celery_notice.py</text>
</g>
<!-- 134 -->
<g id="node135" class="node"><title>134</title>
<polygon fill="none" stroke="black" points="37000.5,-36 36739.5,-36 36739.5,-0 37000.5,-0 37000.5,-36"/>
<text text-anchor="middle" x="36870" y="-14.3" font-family="Times,serif" font-size="14.00">/opt/OpsManage/apps/tasks/celery_orders.py</text>
</g>
<!-- 135 -->
<g id="node136" class="node"><title>135</title>
<polygon fill="none" stroke="black" points="37277,-36 37019,-36 37019,-0 37277,-0 37277,-36"/>
<text text-anchor="middle" x="37148" y="-14.3" font-family="Times,serif" font-size="14.00">/opt/OpsManage/apps/tasks/celery_sched.py</text>
</g>
<!-- 136 -->
<g id="node137" class="node"><title>136</title>
<polygon fill="none" stroke="black" points="37538.5,-36 37295.5,-36 37295.5,-0 37538.5,-0 37538.5,-36"/>
<text text-anchor="middle" x="37417" y="-14.3" font-family="Times,serif" font-size="14.00">/opt/OpsManage/apps/tasks/celery_sql.py</text>
</g>
<!-- 137 -->
<g id="node138" class="node"><title>137</title>
<polygon fill="none" stroke="black" points="37819.5,-36 37556.5,-36 37556.5,-0 37819.5,-0 37819.5,-36"/>
<text text-anchor="middle" x="37688" y="-14.3" font-family="Times,serif" font-size="14.00">/opt/OpsManage/apps/websocket/__init__.py</text>
</g>
<!-- 138 -->
<g id="node139" class="node"><title>138</title>
<polygon fill="none" stroke="black" points="38090,-36 37838,-36 37838,-0 38090,-0 38090,-36"/>
<text text-anchor="middle" x="37964" y="-14.3" font-family="Times,serif" font-size="14.00">/opt/OpsManage/apps/websocket/admin.py</text>
</g>
<!-- 139 -->
<g id="node140" class="node"><title>139</title>
<polygon fill="none" stroke="black" points="38350,-36 38108,-36 38108,-0 38350,-0 38350,-36"/>
<text text-anchor="middle" x="38229" y="-14.3" font-family="Times,serif" font-size="14.00">/opt/OpsManage/apps/websocket/apps.py</text>
</g>
<!-- 140 -->
<g id="node141" class="node"><title>140</title>
<polygon fill="none" stroke="black" points="38644,-36 38368,-36 38368,-0 38644,-0 38644,-36"/>
<text text-anchor="middle" x="38506" y="-14.3" font-family="Times,serif" font-size="14.00">/opt/OpsManage/apps/websocket/consumers.py</text>
</g>
<!-- 141 -->
<g id="node142" class="node"><title>141</title>
<polygon fill="none" stroke="black" points="38919.5,-36 38662.5,-36 38662.5,-0 38919.5,-0 38919.5,-36"/>
<text text-anchor="middle" x="38791" y="-14.3" font-family="Times,serif" font-size="14.00">/opt/OpsManage/apps/websocket/models.py</text>
</g>
<!-- 142 -->
<g id="node143" class="node"><title>142</title>
<polygon fill="none" stroke="black" points="39180,-36 38938,-36 38938,-0 39180,-0 39180,-36"/>
<text text-anchor="middle" x="39059" y="-14.3" font-family="Times,serif" font-size="14.00">/opt/OpsManage/apps/websocket/tests.py</text>
</g>
<!-- 143 -->
<g id="node144" class="node"><title>143</title>
<polygon fill="none" stroke="black" points="39436,-36 39198,-36 39198,-0 39436,-0 39436,-36"/>
<text text-anchor="middle" x="39317" y="-14.3" font-family="Times,serif" font-size="14.00">/opt/OpsManage/apps/websocket/urls.py</text>
</g>
<!-- 144 -->
<g id="node145" class="node"><title>144</title>
<polygon fill="none" stroke="black" points="39703.5,-36 39454.5,-36 39454.5,-0 39703.5,-0 39703.5,-36"/>
<text text-anchor="middle" x="39579" y="-14.3" font-family="Times,serif" font-size="14.00">/opt/OpsManage/apps/websocket/views.py</text>
</g>
<!-- 145 -->
<g id="node146" class="node"><title>145</title>
<polygon fill="none" stroke="black" points="39952,-36 39722,-36 39722,-0 39952,-0 39952,-36"/>
<text text-anchor="middle" x="39837" y="-14.3" font-family="Times,serif" font-size="14.00">/opt/OpsManage/apps/wiki/__init__.py</text>
</g>
<!-- 146 -->
<g id="node147" class="node"><title>146</title>
<polygon fill="none" stroke="black" points="40189.5,-36 39970.5,-36 39970.5,-0 40189.5,-0 40189.5,-36"/>
<text text-anchor="middle" x="40080" y="-14.3" font-family="Times,serif" font-size="14.00">/opt/OpsManage/apps/wiki/admin.py</text>
</g>
<!-- 147 -->
<g id="node148" class="node"><title>147</title>
<polygon fill="none" stroke="black" points="40416.5,-36 40207.5,-36 40207.5,-0 40416.5,-0 40416.5,-36"/>
<text text-anchor="middle" x="40312" y="-14.3" font-family="Times,serif" font-size="14.00">/opt/OpsManage/apps/wiki/apps.py</text>
</g>
<!-- 148 -->
<g id="node149" class="node"><title>148</title>
<polygon fill="none" stroke="black" points="40747,-36 40435,-36 40435,-0 40747,-0 40747,-36"/>
<text text-anchor="middle" x="40591" y="-14.3" font-family="Times,serif" font-size="14.00">/opt/OpsManage/apps/wiki/migrations/0001_initial.py</text>
</g>
<!-- 149 -->
<g id="node150" class="node"><title>149</title>
<polygon fill="none" stroke="black" points="41057,-36 40765,-36 40765,-0 41057,-0 41057,-36"/>
<text text-anchor="middle" x="40911" y="-14.3" font-family="Times,serif" font-size="14.00">/opt/OpsManage/apps/wiki/migrations/__init__.py</text>
</g>
<!-- 150 -->
<g id="node151" class="node"><title>150</title>
<polygon fill="none" stroke="black" points="41299,-36 41075,-36 41075,-0 41299,-0 41299,-36"/>
<text text-anchor="middle" x="41187" y="-14.3" font-family="Times,serif" font-size="14.00">/opt/OpsManage/apps/wiki/models.py</text>
</g>
<!-- 151 -->
<g id="node152" class="node"><title>151</title>
<polygon fill="none" stroke="black" points="41522.5,-36 41317.5,-36 41317.5,-0 41522.5,-0 41522.5,-36"/>
<text text-anchor="middle" x="41420" y="-14.3" font-family="Times,serif" font-size="14.00">/opt/OpsManage/apps/wiki/urls.py</text>
</g>
<!-- 152 -->
<g id="node153" class="node"><title>152</title>
<polygon fill="none" stroke="black" points="41757,-36 41541,-36 41541,-0 41757,-0 41757,-36"/>
<text text-anchor="middle" x="41649" y="-14.3" font-family="Times,serif" font-size="14.00">/opt/OpsManage/apps/wiki/views.py</text>
</g>
</g>
</svg>
