<?xml version="1.0" encoding="UTF-8" standalone="no"?>
<!DOCTYPE svg PUBLIC "-//W3C//DTD SVG 1.1//EN"
 "http://www.w3.org/Graphics/SVG/1.1/DTD/svg11.dtd">
<!-- Generated by graphviz version 2.30.1 (20180420.1509)
 -->
<!-- Title: packages Pages: 1 -->
<svg width="2384pt" height="44pt"
 viewBox="0.00 0.00 2384.00 44.00" xmlns="http://www.w3.org/2000/svg" xmlns:xlink="http://www.w3.org/1999/xlink">
<g id="graph0" class="graph" transform="scale(1 1) rotate(0) translate(4 40)">
<title>packages</title>
<polygon fill="white" stroke="white" points="-4,5 -4,-40 2381,-40 2381,5 -4,5"/>
<!-- 0 -->
<g id="node1" class="node"><title>0</title>
<polygon fill="none" stroke="black" points="242,-36 0,-36 0,-0 242,-0 242,-36"/>
<text text-anchor="middle" x="121" y="-14.3" font-family="Times,serif" font-size="14.00">/opt/OpsManage/apps/navbar/__init__.py</text>
</g>
<!-- 1 -->
<g id="node2" class="node"><title>1</title>
<polygon fill="none" stroke="black" points="492,-36 260,-36 260,-0 492,-0 492,-36"/>
<text text-anchor="middle" x="376" y="-14.3" font-family="Times,serif" font-size="14.00">/opt/OpsManage/apps/navbar/admin.py</text>
</g>
<!-- 2 -->
<g id="node3" class="node"><title>2</title>
<polygon fill="none" stroke="black" points="732,-36 510,-36 510,-0 732,-0 732,-36"/>
<text text-anchor="middle" x="621" y="-14.3" font-family="Times,serif" font-size="14.00">/opt/OpsManage/apps/navbar/apps.py</text>
</g>
<!-- 3 -->
<g id="node4" class="node"><title>3</title>
<polygon fill="none" stroke="black" points="1075.5,-36 750.5,-36 750.5,-0 1075.5,-0 1075.5,-36"/>
<text text-anchor="middle" x="913" y="-14.3" font-family="Times,serif" font-size="14.00">/opt/OpsManage/apps/navbar/migrations/0001_initial.py</text>
</g>
<!-- 4 -->
<g id="node5" class="node"><title>4</title>
<polygon fill="none" stroke="black" points="1398.5,-36 1093.5,-36 1093.5,-0 1398.5,-0 1398.5,-36"/>
<text text-anchor="middle" x="1246" y="-14.3" font-family="Times,serif" font-size="14.00">/opt/OpsManage/apps/navbar/migrations/__init__.py</text>
</g>
<!-- 5 -->
<g id="node6" class="node"><title>5</title>
<polygon fill="none" stroke="black" points="1653.5,-36 1416.5,-36 1416.5,-0 1653.5,-0 1653.5,-36"/>
<text text-anchor="middle" x="1535" y="-14.3" font-family="Times,serif" font-size="14.00">/opt/OpsManage/apps/navbar/models.py</text>
</g>
<!-- 6 -->
<g id="node7" class="node"><title>6</title>
<polygon fill="none" stroke="black" points="1892.5,-36 1671.5,-36 1671.5,-0 1892.5,-0 1892.5,-36"/>
<text text-anchor="middle" x="1782" y="-14.3" font-family="Times,serif" font-size="14.00">/opt/OpsManage/apps/navbar/tests.py</text>
</g>
<!-- 7 -->
<g id="node8" class="node"><title>7</title>
<polygon fill="none" stroke="black" points="2129,-36 1911,-36 1911,-0 2129,-0 2129,-36"/>
<text text-anchor="middle" x="2020" y="-14.3" font-family="Times,serif" font-size="14.00">/opt/OpsManage/apps/navbar/urls.py</text>
</g>
<!-- 8 -->
<g id="node9" class="node"><title>8</title>
<polygon fill="none" stroke="black" points="2376.5,-36 2147.5,-36 2147.5,-0 2376.5,-0 2376.5,-36"/>
<text text-anchor="middle" x="2262" y="-14.3" font-family="Times,serif" font-size="14.00">/opt/OpsManage/apps/navbar/views.py</text>
</g>
</g>
</svg>
