<?xml version="1.0" encoding="UTF-8" standalone="no"?>
<!DOCTYPE svg PUBLIC "-//W3C//DTD SVG 1.1//EN"
 "http://www.w3.org/Graphics/SVG/1.1/DTD/svg11.dtd">
<!-- Generated by graphviz version 2.30.1 (20180420.1509)
 -->
<!-- Title: packages Pages: 1 -->
<svg width="2097pt" height="44pt"
 viewBox="0.00 0.00 2097.00 44.00" xmlns="http://www.w3.org/2000/svg" xmlns:xlink="http://www.w3.org/1999/xlink">
<g id="graph0" class="graph" transform="scale(1 1) rotate(0) translate(4 40)">
<title>packages</title>
<polygon fill="white" stroke="white" points="-4,5 -4,-40 2094,-40 2094,5 -4,5"/>
<!-- 0 -->
<g id="node1" class="node"><title>0</title>
<polygon fill="none" stroke="black" points="236,-36 0,-36 0,-0 236,-0 236,-36"/>
<text text-anchor="middle" x="118" y="-14.3" font-family="Times,serif" font-size="14.00">/opt/OpsManage/apps/sched/__init__.py</text>
</g>
<!-- 1 -->
<g id="node2" class="node"><title>1</title>
<polygon fill="none" stroke="black" points="480,-36 254,-36 254,-0 480,-0 480,-36"/>
<text text-anchor="middle" x="367" y="-14.3" font-family="Times,serif" font-size="14.00">/opt/OpsManage/apps/sched/admin.py</text>
</g>
<!-- 2 -->
<g id="node3" class="node"><title>2</title>
<polygon fill="none" stroke="black" points="714,-36 498,-36 498,-0 714,-0 714,-36"/>
<text text-anchor="middle" x="606" y="-14.3" font-family="Times,serif" font-size="14.00">/opt/OpsManage/apps/sched/apps.py</text>
</g>
<!-- 3 -->
<g id="node4" class="node"><title>3</title>
<polygon fill="none" stroke="black" points="1051.5,-36 732.5,-36 732.5,-0 1051.5,-0 1051.5,-36"/>
<text text-anchor="middle" x="892" y="-14.3" font-family="Times,serif" font-size="14.00">/opt/OpsManage/apps/sched/migrations/0001_initial.py</text>
</g>
<!-- 4 -->
<g id="node5" class="node"><title>4</title>
<polygon fill="none" stroke="black" points="1368.5,-36 1069.5,-36 1069.5,-0 1368.5,-0 1368.5,-36"/>
<text text-anchor="middle" x="1219" y="-14.3" font-family="Times,serif" font-size="14.00">/opt/OpsManage/apps/sched/migrations/__init__.py</text>
</g>
<!-- 5 -->
<g id="node6" class="node"><title>5</title>
<polygon fill="none" stroke="black" points="1617.5,-36 1386.5,-36 1386.5,-0 1617.5,-0 1617.5,-36"/>
<text text-anchor="middle" x="1502" y="-14.3" font-family="Times,serif" font-size="14.00">/opt/OpsManage/apps/sched/models.py</text>
</g>
<!-- 6 -->
<g id="node7" class="node"><title>6</title>
<polygon fill="none" stroke="black" points="1848,-36 1636,-36 1636,-0 1848,-0 1848,-36"/>
<text text-anchor="middle" x="1742" y="-14.3" font-family="Times,serif" font-size="14.00">/opt/OpsManage/apps/sched/urls.py</text>
</g>
<!-- 7 -->
<g id="node8" class="node"><title>7</title>
<polygon fill="none" stroke="black" points="2089.5,-36 1866.5,-36 1866.5,-0 2089.5,-0 2089.5,-36"/>
<text text-anchor="middle" x="1978" y="-14.3" font-family="Times,serif" font-size="14.00">/opt/OpsManage/apps/sched/views.py</text>
</g>
</g>
</svg>
