<?xml version="1.0" encoding="UTF-8" standalone="no"?>
<!DOCTYPE svg PUBLIC "-//W3C//DTD SVG 1.1//EN"
 "http://www.w3.org/Graphics/SVG/1.1/DTD/svg11.dtd">
<!-- Generated by graphviz version 2.30.1 (20180420.1509)
 -->
<!-- Title: packages Pages: 1 -->
<svg width="5852pt" height="44pt"
 viewBox="0.00 0.00 5852.00 44.00" xmlns="http://www.w3.org/2000/svg" xmlns:xlink="http://www.w3.org/1999/xlink">
<g id="graph0" class="graph" transform="scale(1 1) rotate(0) translate(4 40)">
<title>packages</title>
<polygon fill="white" stroke="white" points="-4,5 -4,-40 5849,-40 5849,5 -4,5"/>
<!-- 0 -->
<g id="node1" class="node"><title>0</title>
<polygon fill="none" stroke="black" points="222,-36 0,-36 0,-0 222,-0 222,-36"/>
<text text-anchor="middle" x="111" y="-14.3" font-family="Times,serif" font-size="14.00">/opt/OpsManage/apps/api/__init__.py</text>
</g>
<!-- 1 -->
<g id="node2" class="node"><title>1</title>
<polygon fill="none" stroke="black" points="452,-36 240,-36 240,-0 452,-0 452,-36"/>
<text text-anchor="middle" x="346" y="-14.3" font-family="Times,serif" font-size="14.00">/opt/OpsManage/apps/api/admin.py</text>
</g>
<!-- 2 -->
<g id="node3" class="node"><title>2</title>
<polygon fill="none" stroke="black" points="672,-36 470,-36 470,-0 672,-0 672,-36"/>
<text text-anchor="middle" x="571" y="-14.3" font-family="Times,serif" font-size="14.00">/opt/OpsManage/apps/api/apps.py</text>
</g>
<!-- 3 -->
<g id="node4" class="node"><title>3</title>
<polygon fill="none" stroke="black" points="907.5,-36 690.5,-36 690.5,-0 907.5,-0 907.5,-36"/>
<text text-anchor="middle" x="799" y="-14.3" font-family="Times,serif" font-size="14.00">/opt/OpsManage/apps/api/models.py</text>
</g>
<!-- 4 -->
<g id="node5" class="node"><title>4</title>
<polygon fill="none" stroke="black" points="1158,-36 926,-36 926,-0 1158,-0 1158,-36"/>
<text text-anchor="middle" x="1042" y="-14.3" font-family="Times,serif" font-size="14.00">/opt/OpsManage/apps/api/serializers.py</text>
</g>
<!-- 5 -->
<g id="node6" class="node"><title>5</title>
<polygon fill="none" stroke="black" points="1373.5,-36 1176.5,-36 1176.5,-0 1373.5,-0 1373.5,-36"/>
<text text-anchor="middle" x="1275" y="-14.3" font-family="Times,serif" font-size="14.00">/opt/OpsManage/apps/api/urls.py</text>
</g>
<!-- 6 -->
<g id="node7" class="node"><title>6</title>
<polygon fill="none" stroke="black" points="1600.5,-36 1391.5,-36 1391.5,-0 1600.5,-0 1600.5,-36"/>
<text text-anchor="middle" x="1496" y="-14.3" font-family="Times,serif" font-size="14.00">/opt/OpsManage/apps/api/views.py</text>
</g>
<!-- 7 -->
<g id="node8" class="node"><title>7</title>
<polygon fill="none" stroke="black" points="1875.5,-36 1618.5,-36 1618.5,-0 1875.5,-0 1875.5,-36"/>
<text text-anchor="middle" x="1747" y="-14.3" font-family="Times,serif" font-size="14.00">/opt/OpsManage/apps/api/views/__init__.py</text>
</g>
<!-- 8 -->
<g id="node9" class="node"><title>8</title>
<polygon fill="none" stroke="black" points="2172,-36 1894,-36 1894,-0 2172,-0 2172,-36"/>
<text text-anchor="middle" x="2033" y="-14.3" font-family="Times,serif" font-size="14.00">/opt/OpsManage/apps/api/views/account_api.py</text>
</g>
<!-- 9 -->
<g id="node10" class="node"><title>9</title>
<polygon fill="none" stroke="black" points="2469.5,-36 2190.5,-36 2190.5,-0 2469.5,-0 2469.5,-36"/>
<text text-anchor="middle" x="2330" y="-14.3" font-family="Times,serif" font-size="14.00">/opt/OpsManage/apps/api/views/apscehd_api.py</text>
</g>
<!-- 10 -->
<g id="node11" class="node"><title>10</title>
<polygon fill="none" stroke="black" points="2754.5,-36 2487.5,-36 2487.5,-0 2754.5,-0 2754.5,-36"/>
<text text-anchor="middle" x="2621" y="-14.3" font-family="Times,serif" font-size="14.00">/opt/OpsManage/apps/api/views/assets_api.py</text>
</g>
<!-- 11 -->
<g id="node12" class="node"><title>11</title>
<polygon fill="none" stroke="black" points="3041.5,-36 2772.5,-36 2772.5,-0 3041.5,-0 3041.5,-36"/>
<text text-anchor="middle" x="2907" y="-14.3" font-family="Times,serif" font-size="14.00">/opt/OpsManage/apps/api/views/celery_api.py</text>
</g>
<!-- 12 -->
<g id="node13" class="node"><title>12</title>
<polygon fill="none" stroke="black" points="3318,-36 3060,-36 3060,-0 3318,-0 3318,-36"/>
<text text-anchor="middle" x="3189" y="-14.3" font-family="Times,serif" font-size="14.00">/opt/OpsManage/apps/api/views/cicd_api.py</text>
</g>
<!-- 13 -->
<g id="node14" class="node"><title>13</title>
<polygon fill="none" stroke="black" points="3596,-36 3336,-36 3336,-0 3596,-0 3596,-36"/>
<text text-anchor="middle" x="3466" y="-14.3" font-family="Times,serif" font-size="14.00">/opt/OpsManage/apps/api/views/cron_api.py</text>
</g>
<!-- 14 -->
<g id="node15" class="node"><title>14</title>
<polygon fill="none" stroke="black" points="3863.5,-36 3614.5,-36 3614.5,-0 3863.5,-0 3863.5,-36"/>
<text text-anchor="middle" x="3739" y="-14.3" font-family="Times,serif" font-size="14.00">/opt/OpsManage/apps/api/views/db_api.py</text>
</g>
<!-- 15 -->
<g id="node16" class="node"><title>15</title>
<polygon fill="none" stroke="black" points="4154,-36 3882,-36 3882,-0 4154,-0 4154,-36"/>
<text text-anchor="middle" x="4018" y="-14.3" font-family="Times,serif" font-size="14.00">/opt/OpsManage/apps/api/views/deploy_api.py</text>
</g>
<!-- 16 -->
<g id="node17" class="node"><title>16</title>
<polygon fill="none" stroke="black" points="4431.5,-36 4172.5,-36 4172.5,-0 4431.5,-0 4431.5,-36"/>
<text text-anchor="middle" x="4302" y="-14.3" font-family="Times,serif" font-size="14.00">/opt/OpsManage/apps/api/views/files_api.py</text>
</g>
<!-- 17 -->
<g id="node18" class="node"><title>17</title>
<polygon fill="none" stroke="black" points="4708,-36 4450,-36 4450,-0 4708,-0 4708,-36"/>
<text text-anchor="middle" x="4579" y="-14.3" font-family="Times,serif" font-size="14.00">/opt/OpsManage/apps/api/views/ipvs_api.py</text>
</g>
<!-- 18 -->
<g id="node19" class="node"><title>18</title>
<polygon fill="none" stroke="black" points="5005.5,-36 4726.5,-36 4726.5,-0 5005.5,-0 5005.5,-36"/>
<text text-anchor="middle" x="4866" y="-14.3" font-family="Times,serif" font-size="14.00">/opt/OpsManage/apps/api/views/monitor_api.py</text>
</g>
<!-- 19 -->
<g id="node20" class="node"><title>19</title>
<polygon fill="none" stroke="black" points="5278.5,-36 5023.5,-36 5023.5,-0 5278.5,-0 5278.5,-36"/>
<text text-anchor="middle" x="5151" y="-14.3" font-family="Times,serif" font-size="14.00">/opt/OpsManage/apps/api/views/nav_api.py</text>
</g>
<!-- 20 -->
<g id="node21" class="node"><title>20</title>
<polygon fill="none" stroke="black" points="5565.5,-36 5296.5,-36 5296.5,-0 5565.5,-0 5565.5,-36"/>
<text text-anchor="middle" x="5431" y="-14.3" font-family="Times,serif" font-size="14.00">/opt/OpsManage/apps/api/views/orders_api.py</text>
</g>
<!-- 21 -->
<g id="node22" class="node"><title>21</title>
<polygon fill="none" stroke="black" points="5844,-36 5584,-36 5584,-0 5844,-0 5844,-36"/>
<text text-anchor="middle" x="5714" y="-14.3" font-family="Times,serif" font-size="14.00">/opt/OpsManage/apps/api/views/wiki_api.py</text>
</g>
</g>
</svg>
