<?xml version="1.0" encoding="UTF-8" standalone="no"?>
<!DOCTYPE svg PUBLIC "-//W3C//DTD SVG 1.1//EN"
 "http://www.w3.org/Graphics/SVG/1.1/DTD/svg11.dtd">
<!-- Generated by graphviz version 2.30.1 (20180420.1509)
 -->
<!-- Title: packages Pages: 1 -->
<svg width="3061pt" height="44pt"
 viewBox="0.00 0.00 3061.00 44.00" xmlns="http://www.w3.org/2000/svg" xmlns:xlink="http://www.w3.org/1999/xlink">
<g id="graph0" class="graph" transform="scale(1 1) rotate(0) translate(4 40)">
<title>packages</title>
<polygon fill="white" stroke="white" points="-4,5 -4,-40 3058,-40 3058,5 -4,5"/>
<!-- 0 -->
<g id="node1" class="node"><title>0</title>
<polygon fill="none" stroke="black" points="196.5,-36 -0.5,-36 -0.5,-0 196.5,-0 196.5,-36"/>
<text text-anchor="middle" x="98" y="-14.3" font-family="Times,serif" font-size="14.00">/opt/OpsManage/dao/__init__.py</text>
</g>
<!-- 1 -->
<g id="node2" class="node"><title>1</title>
<polygon fill="none" stroke="black" points="409,-36 215,-36 215,-0 409,-0 409,-36"/>
<text text-anchor="middle" x="312" y="-14.3" font-family="Times,serif" font-size="14.00">/opt/OpsManage/dao/account.py</text>
</g>
<!-- 2 -->
<g id="node3" class="node"><title>2</title>
<polygon fill="none" stroke="black" points="622.5,-36 427.5,-36 427.5,-0 622.5,-0 622.5,-36"/>
<text text-anchor="middle" x="525" y="-14.3" font-family="Times,serif" font-size="14.00">/opt/OpsManage/dao/apsched.py</text>
</g>
<!-- 3 -->
<g id="node4" class="node"><title>3</title>
<polygon fill="none" stroke="black" points="823.5,-36 640.5,-36 640.5,-0 823.5,-0 823.5,-36"/>
<text text-anchor="middle" x="732" y="-14.3" font-family="Times,serif" font-size="14.00">/opt/OpsManage/dao/assets.py</text>
</g>
<!-- 4 -->
<g id="node5" class="node"><title>4</title>
<polygon fill="none" stroke="black" points="1018,-36 842,-36 842,-0 1018,-0 1018,-36"/>
<text text-anchor="middle" x="930" y="-14.3" font-family="Times,serif" font-size="14.00">/opt/OpsManage/dao/base.py</text>
</g>
<!-- 5 -->
<g id="node6" class="node"><title>5</title>
<polygon fill="none" stroke="black" points="1226,-36 1036,-36 1036,-0 1226,-0 1226,-36"/>
<text text-anchor="middle" x="1131" y="-14.3" font-family="Times,serif" font-size="14.00">/opt/OpsManage/dao/celerys.py</text>
</g>
<!-- 6 -->
<g id="node7" class="node"><title>6</title>
<polygon fill="none" stroke="black" points="1418,-36 1244,-36 1244,-0 1418,-0 1418,-36"/>
<text text-anchor="middle" x="1331" y="-14.3" font-family="Times,serif" font-size="14.00">/opt/OpsManage/dao/cicd.py</text>
</g>
<!-- 7 -->
<g id="node8" class="node"><title>7</title>
<polygon fill="none" stroke="black" points="1628,-36 1436,-36 1436,-0 1628,-0 1628,-36"/>
<text text-anchor="middle" x="1532" y="-14.3" font-family="Times,serif" font-size="14.00">/opt/OpsManage/dao/crontab.py</text>
</g>
<!-- 8 -->
<g id="node9" class="node"><title>8</title>
<polygon fill="none" stroke="black" points="1844,-36 1646,-36 1646,-0 1844,-0 1844,-36"/>
<text text-anchor="middle" x="1745" y="-14.3" font-family="Times,serif" font-size="14.00">/opt/OpsManage/dao/database.py</text>
</g>
<!-- 9 -->
<g id="node10" class="node"><title>9</title>
<polygon fill="none" stroke="black" points="2048,-36 1862,-36 1862,-0 2048,-0 2048,-36"/>
<text text-anchor="middle" x="1955" y="-14.3" font-family="Times,serif" font-size="14.00">/opt/OpsManage/dao/dispos.py</text>
</g>
<!-- 10 -->
<g id="node11" class="node"><title>10</title>
<polygon fill="none" stroke="black" points="2240,-36 2066,-36 2066,-0 2240,-0 2240,-36"/>
<text text-anchor="middle" x="2153" y="-14.3" font-family="Times,serif" font-size="14.00">/opt/OpsManage/dao/ipvs.py</text>
</g>
<!-- 11 -->
<g id="node12" class="node"><title>11</title>
<polygon fill="none" stroke="black" points="2446,-36 2258,-36 2258,-0 2446,-0 2446,-36"/>
<text text-anchor="middle" x="2352" y="-14.3" font-family="Times,serif" font-size="14.00">/opt/OpsManage/dao/navbar.py</text>
</g>
<!-- 12 -->
<g id="node13" class="node"><title>12</title>
<polygon fill="none" stroke="black" points="2649.5,-36 2464.5,-36 2464.5,-0 2649.5,-0 2649.5,-36"/>
<text text-anchor="middle" x="2557" y="-14.3" font-family="Times,serif" font-size="14.00">/opt/OpsManage/dao/orders.py</text>
</g>
<!-- 13 -->
<g id="node14" class="node"><title>13</title>
<polygon fill="none" stroke="black" points="2858.5,-36 2667.5,-36 2667.5,-0 2858.5,-0 2858.5,-36"/>
<text text-anchor="middle" x="2763" y="-14.3" font-family="Times,serif" font-size="14.00">/opt/OpsManage/dao/redisdb.py</text>
</g>
<!-- 14 -->
<g id="node15" class="node"><title>14</title>
<polygon fill="none" stroke="black" points="3053,-36 2877,-36 2877,-0 3053,-0 3053,-36"/>
<text text-anchor="middle" x="2965" y="-14.3" font-family="Times,serif" font-size="14.00">/opt/OpsManage/dao/wiki.py</text>
</g>
</g>
</svg>
