<?xml version="1.0" encoding="UTF-8" standalone="no"?>
<!DOCTYPE svg PUBLIC "-//W3C//DTD SVG 1.1//EN"
 "http://www.w3.org/Graphics/SVG/1.1/DTD/svg11.dtd">
<!-- Generated by graphviz version 2.30.1 (20180420.1509)
 -->
<!-- Title: packages Pages: 1 -->
<svg width="2662pt" height="44pt"
 viewBox="0.00 0.00 2662.00 44.00" xmlns="http://www.w3.org/2000/svg" xmlns:xlink="http://www.w3.org/1999/xlink">
<g id="graph0" class="graph" transform="scale(1 1) rotate(0) translate(4 40)">
<title>packages</title>
<polygon fill="white" stroke="white" points="-4,5 -4,-40 2659,-40 2659,5 -4,5"/>
<!-- 0 -->
<g id="node1" class="node"><title>0</title>
<polygon fill="none" stroke="black" points="242,-36 0,-36 0,-0 242,-0 242,-36"/>
<text text-anchor="middle" x="121" y="-14.3" font-family="Times,serif" font-size="14.00">/opt/OpsManage/apps/deploy/__init__.py</text>
</g>
<!-- 1 -->
<g id="node2" class="node"><title>1</title>
<polygon fill="none" stroke="black" points="492,-36 260,-36 260,-0 492,-0 492,-36"/>
<text text-anchor="middle" x="376" y="-14.3" font-family="Times,serif" font-size="14.00">/opt/OpsManage/apps/deploy/admin.py</text>
</g>
<!-- 2 -->
<g id="node3" class="node"><title>2</title>
<polygon fill="none" stroke="black" points="732,-36 510,-36 510,-0 732,-0 732,-36"/>
<text text-anchor="middle" x="621" y="-14.3" font-family="Times,serif" font-size="14.00">/opt/OpsManage/apps/deploy/apps.py</text>
</g>
<!-- 3 -->
<g id="node4" class="node"><title>3</title>
<polygon fill="none" stroke="black" points="1010,-36 750,-36 750,-0 1010,-0 1010,-36"/>
<text text-anchor="middle" x="880" y="-14.3" font-family="Times,serif" font-size="14.00">/opt/OpsManage/apps/deploy/comsumers.py</text>
</g>
<!-- 4 -->
<g id="node5" class="node"><title>4</title>
<polygon fill="none" stroke="black" points="1353.5,-36 1028.5,-36 1028.5,-0 1353.5,-0 1353.5,-36"/>
<text text-anchor="middle" x="1191" y="-14.3" font-family="Times,serif" font-size="14.00">/opt/OpsManage/apps/deploy/migrations/0001_initial.py</text>
</g>
<!-- 5 -->
<g id="node6" class="node"><title>5</title>
<polygon fill="none" stroke="black" points="1676.5,-36 1371.5,-36 1371.5,-0 1676.5,-0 1676.5,-36"/>
<text text-anchor="middle" x="1524" y="-14.3" font-family="Times,serif" font-size="14.00">/opt/OpsManage/apps/deploy/migrations/__init__.py</text>
</g>
<!-- 6 -->
<g id="node7" class="node"><title>6</title>
<polygon fill="none" stroke="black" points="1931.5,-36 1694.5,-36 1694.5,-0 1931.5,-0 1931.5,-36"/>
<text text-anchor="middle" x="1813" y="-14.3" font-family="Times,serif" font-size="14.00">/opt/OpsManage/apps/deploy/models.py</text>
</g>
<!-- 7 -->
<g id="node8" class="node"><title>7</title>
<polygon fill="none" stroke="black" points="2170.5,-36 1949.5,-36 1949.5,-0 2170.5,-0 2170.5,-36"/>
<text text-anchor="middle" x="2060" y="-14.3" font-family="Times,serif" font-size="14.00">/opt/OpsManage/apps/deploy/tests.py</text>
</g>
<!-- 8 -->
<g id="node9" class="node"><title>8</title>
<polygon fill="none" stroke="black" points="2407,-36 2189,-36 2189,-0 2407,-0 2407,-36"/>
<text text-anchor="middle" x="2298" y="-14.3" font-family="Times,serif" font-size="14.00">/opt/OpsManage/apps/deploy/urls.py</text>
</g>
<!-- 9 -->
<g id="node10" class="node"><title>9</title>
<polygon fill="none" stroke="black" points="2654.5,-36 2425.5,-36 2425.5,-0 2654.5,-0 2654.5,-36"/>
<text text-anchor="middle" x="2540" y="-14.3" font-family="Times,serif" font-size="14.00">/opt/OpsManage/apps/deploy/views.py</text>
</g>
</g>
</svg>
