<?xml version="1.0" encoding="UTF-8" standalone="no"?>
<!DOCTYPE svg PUBLIC "-//W3C//DTD SVG 1.1//EN"
 "http://www.w3.org/Graphics/SVG/1.1/DTD/svg11.dtd">
<!-- Generated by graphviz version 2.30.1 (20180420.1509)
 -->
<!-- Title: packages Pages: 1 -->
<svg width="3355pt" height="44pt"
 viewBox="0.00 0.00 3355.00 44.00" xmlns="http://www.w3.org/2000/svg" xmlns:xlink="http://www.w3.org/1999/xlink">
<g id="graph0" class="graph" transform="scale(1 1) rotate(0) translate(4 40)">
<title>packages</title>
<polygon fill="white" stroke="white" points="-4,5 -4,-40 3352,-40 3352,5 -4,5"/>
<!-- 0 -->
<g id="node1" class="node"><title>0</title>
<polygon fill="none" stroke="black" points="228,-36 0,-36 0,-0 228,-0 228,-36"/>
<text text-anchor="middle" x="114" y="-14.3" font-family="Times,serif" font-size="14.00">/opt/OpsManage/apps/cicd/__init__.py</text>
</g>
<!-- 1 -->
<g id="node2" class="node"><title>1</title>
<polygon fill="none" stroke="black" points="464,-36 246,-36 246,-0 464,-0 464,-36"/>
<text text-anchor="middle" x="355" y="-14.3" font-family="Times,serif" font-size="14.00">/opt/OpsManage/apps/cicd/admin.py</text>
</g>
<!-- 2 -->
<g id="node3" class="node"><title>2</title>
<polygon fill="none" stroke="black" points="690,-36 482,-36 482,-0 690,-0 690,-36"/>
<text text-anchor="middle" x="586" y="-14.3" font-family="Times,serif" font-size="14.00">/opt/OpsManage/apps/cicd/apps.py</text>
</g>
<!-- 3 -->
<g id="node4" class="node"><title>3</title>
<polygon fill="none" stroke="black" points="954,-36 708,-36 708,-0 954,-0 954,-36"/>
<text text-anchor="middle" x="831" y="-14.3" font-family="Times,serif" font-size="14.00">/opt/OpsManage/apps/cicd/comsumers.py</text>
</g>
<!-- 4 -->
<g id="node5" class="node"><title>4</title>
<polygon fill="none" stroke="black" points="1283.5,-36 972.5,-36 972.5,-0 1283.5,-0 1283.5,-36"/>
<text text-anchor="middle" x="1128" y="-14.3" font-family="Times,serif" font-size="14.00">/opt/OpsManage/apps/cicd/migrations/0001_initial.py</text>
</g>
<!-- 5 -->
<g id="node6" class="node"><title>5</title>
<polygon fill="none" stroke="black" points="1592,-36 1302,-36 1302,-0 1592,-0 1592,-36"/>
<text text-anchor="middle" x="1447" y="-14.3" font-family="Times,serif" font-size="14.00">/opt/OpsManage/apps/cicd/migrations/__init__.py</text>
</g>
<!-- 6 -->
<g id="node7" class="node"><title>6</title>
<polygon fill="none" stroke="black" points="1833.5,-36 1610.5,-36 1610.5,-0 1833.5,-0 1833.5,-36"/>
<text text-anchor="middle" x="1722" y="-14.3" font-family="Times,serif" font-size="14.00">/opt/OpsManage/apps/cicd/models.py</text>
</g>
<!-- 7 -->
<g id="node8" class="node"><title>7</title>
<polygon fill="none" stroke="black" points="2122,-36 1852,-36 1852,-0 2122,-0 2122,-36"/>
<text text-anchor="middle" x="1987" y="-14.3" font-family="Times,serif" font-size="14.00">/opt/OpsManage/apps/cicd/service/__init__.py</text>
</g>
<!-- 8 -->
<g id="node9" class="node"><title>8</title>
<polygon fill="none" stroke="black" points="2402,-36 2140,-36 2140,-0 2402,-0 2402,-36"/>
<text text-anchor="middle" x="2271" y="-14.3" font-family="Times,serif" font-size="14.00">/opt/OpsManage/apps/cicd/service/deploy.py</text>
</g>
<!-- 9 -->
<g id="node10" class="node"><title>9</title>
<polygon fill="none" stroke="black" points="2668,-36 2420,-36 2420,-0 2668,-0 2668,-36"/>
<text text-anchor="middle" x="2544" y="-14.3" font-family="Times,serif" font-size="14.00">/opt/OpsManage/apps/cicd/service/utils.py</text>
</g>
<!-- 10 -->
<g id="node11" class="node"><title>10</title>
<polygon fill="none" stroke="black" points="2893.5,-36 2686.5,-36 2686.5,-0 2893.5,-0 2893.5,-36"/>
<text text-anchor="middle" x="2790" y="-14.3" font-family="Times,serif" font-size="14.00">/opt/OpsManage/apps/cicd/tests.py</text>
</g>
<!-- 11 -->
<g id="node12" class="node"><title>11</title>
<polygon fill="none" stroke="black" points="3114.5,-36 2911.5,-36 2911.5,-0 3114.5,-0 3114.5,-36"/>
<text text-anchor="middle" x="3013" y="-14.3" font-family="Times,serif" font-size="14.00">/opt/OpsManage/apps/cicd/urls.py</text>
</g>
<!-- 12 -->
<g id="node13" class="node"><title>12</title>
<polygon fill="none" stroke="black" points="3347.5,-36 3132.5,-36 3132.5,-0 3347.5,-0 3347.5,-36"/>
<text text-anchor="middle" x="3240" y="-14.3" font-family="Times,serif" font-size="14.00">/opt/OpsManage/apps/cicd/views.py</text>
</g>
</g>
</svg>
