<?xml version="1.0" encoding="UTF-8" standalone="no"?>
<!DOCTYPE svg PUBLIC "-//W3C//DTD SVG 1.1//EN"
 "http://www.w3.org/Graphics/SVG/1.1/DTD/svg11.dtd">
<!-- Generated by graphviz version 2.30.1 (20180420.1509)
 -->
<!-- Title: classes Pages: 1 -->
<svg width="1195pt" height="1662pt"
 viewBox="0.00 0.00 1195.00 1662.00" xmlns="http://www.w3.org/2000/svg" xmlns:xlink="http://www.w3.org/1999/xlink">
<g id="graph0" class="graph" transform="scale(1 1) rotate(0) translate(4 1658)">
<title>classes</title>
<polygon fill="white" stroke="white" points="-4,5 -4,-1658 1192,-1658 1192,5 -4,5"/>
<!-- 0 -->
<g id="node1" class="node"><title>0</title>
<polygon fill="none" stroke="black" points="458.5,-210.5 458.5,-295.5 769.5,-295.5 769.5,-210.5 458.5,-210.5"/>
<text text-anchor="middle" x="614" y="-280.3" font-family="Times,serif" font-size="14.00">/opt/OpsManage/apps/tasks/callback.py.CallbackTask</text>
<polyline fill="none" stroke="black" points="458.5,-272.5 769.5,-272.5 "/>
<polyline fill="none" stroke="black" points="458.5,-248.5 769.5,-248.5 "/>
<text text-anchor="start" x="466.5" y="-233.3" font-family="Times,serif" font-size="14.00">on_failure(exc, task_id, args, kwargs, einfo)</text>
<text text-anchor="start" x="466.5" y="-218.3" font-family="Times,serif" font-size="14.00">on_success(retval, task_id, args, kwargs)</text>
</g>
<!-- 2 -->
<g id="node3" class="node"><title>2</title>
<polygon fill="none" stroke="black" points="372,-559 372,-1543 856,-1543 856,-559 372,-559"/>
<text text-anchor="middle" x="614" y="-1527.8" font-family="Times,serif" font-size="14.00">celery.app.task.Task</text>
<polyline fill="none" stroke="black" points="372,-1520 856,-1520 "/>
<text text-anchor="start" x="380" y="-1504.8" font-family="Times,serif" font-size="14.00">MaxRetriesExceededError</text>
<text text-anchor="start" x="380" y="-1489.8" font-family="Times,serif" font-size="14.00">OperationalError</text>
<text text-anchor="start" x="380" y="-1474.8" font-family="Times,serif" font-size="14.00">Request : str</text>
<text text-anchor="start" x="380" y="-1459.8" font-family="Times,serif" font-size="14.00">Strategy : str</text>
<text text-anchor="start" x="380" y="-1444.8" font-family="Times,serif" font-size="14.00">abstract : bool</text>
<text text-anchor="start" x="380" y="-1429.8" font-family="Times,serif" font-size="14.00">acks_late : NoneType</text>
<text text-anchor="start" x="380" y="-1414.8" font-family="Times,serif" font-size="14.00">acks_on_failure_or_timeout : NoneType</text>
<text text-anchor="start" x="380" y="-1399.8" font-family="Times,serif" font-size="14.00">app</text>
<text text-anchor="start" x="380" y="-1384.8" font-family="Times,serif" font-size="14.00">autoregister : bool</text>
<text text-anchor="start" x="380" y="-1369.8" font-family="Times,serif" font-size="14.00">backend : NoneType</text>
<text text-anchor="start" x="380" y="-1354.8" font-family="Times,serif" font-size="14.00">default_retry_delay : int</text>
<text text-anchor="start" x="380" y="-1339.8" font-family="Times,serif" font-size="14.00">expires : NoneType</text>
<text text-anchor="start" x="380" y="-1324.8" font-family="Times,serif" font-size="14.00">from_config : tuple</text>
<text text-anchor="start" x="380" y="-1309.8" font-family="Times,serif" font-size="14.00">ignore_result : NoneType</text>
<text text-anchor="start" x="380" y="-1294.8" font-family="Times,serif" font-size="14.00">max_retries : int</text>
<text text-anchor="start" x="380" y="-1279.8" font-family="Times,serif" font-size="14.00">name : NoneType</text>
<text text-anchor="start" x="380" y="-1264.8" font-family="Times,serif" font-size="14.00">priority : NoneType</text>
<text text-anchor="start" x="380" y="-1249.8" font-family="Times,serif" font-size="14.00">rate_limit : NoneType</text>
<text text-anchor="start" x="380" y="-1234.8" font-family="Times,serif" font-size="14.00">reject_on_worker_lost : NoneType</text>
<text text-anchor="start" x="380" y="-1219.8" font-family="Times,serif" font-size="14.00">request : property</text>
<text text-anchor="start" x="380" y="-1204.8" font-family="Times,serif" font-size="14.00">request_stack : NoneType</text>
<text text-anchor="start" x="380" y="-1189.8" font-family="Times,serif" font-size="14.00">resultrepr_maxsize : int</text>
<text text-anchor="start" x="380" y="-1174.8" font-family="Times,serif" font-size="14.00">send_events : bool</text>
<text text-anchor="start" x="380" y="-1159.8" font-family="Times,serif" font-size="14.00">serializer : NoneType</text>
<text text-anchor="start" x="380" y="-1144.8" font-family="Times,serif" font-size="14.00">soft_time_limit : NoneType</text>
<text text-anchor="start" x="380" y="-1129.8" font-family="Times,serif" font-size="14.00">store_errors_even_if_ignored : NoneType</text>
<text text-anchor="start" x="380" y="-1114.8" font-family="Times,serif" font-size="14.00">subtask</text>
<text text-anchor="start" x="380" y="-1099.8" font-family="Times,serif" font-size="14.00">subtask_from_request</text>
<text text-anchor="start" x="380" y="-1084.8" font-family="Times,serif" font-size="14.00">throws : tuple</text>
<text text-anchor="start" x="380" y="-1069.8" font-family="Times,serif" font-size="14.00">time_limit : NoneType</text>
<text text-anchor="start" x="380" y="-1054.8" font-family="Times,serif" font-size="14.00">track_started : NoneType</text>
<text text-anchor="start" x="380" y="-1039.8" font-family="Times,serif" font-size="14.00">trail : bool</text>
<text text-anchor="start" x="380" y="-1024.8" font-family="Times,serif" font-size="14.00">typing : NoneType</text>
<polyline fill="none" stroke="black" points="372,-1017 856,-1017 "/>
<text text-anchor="start" x="380" y="-1001.8" font-family="Times,serif" font-size="14.00">AsyncResult(task_id)</text>
<text text-anchor="start" x="380" y="-986.8" font-family="Times,serif" font-size="14.00">add_around(cls, attr, around)</text>
<text text-anchor="start" x="380" y="-971.8" font-family="Times,serif" font-size="14.00">add_to_chord(sig, lazy)</text>
<text text-anchor="start" x="380" y="-956.8" font-family="Times,serif" font-size="14.00">add_trail(result)</text>
<text text-anchor="start" x="380" y="-941.8" font-family="Times,serif" font-size="14.00">after_return(status, retval, task_id, args, kwargs, einfo)</text>
<text text-anchor="start" x="380" y="-926.8" font-family="Times,serif" font-size="14.00">annotate(cls)</text>
<text text-anchor="start" x="380" y="-911.8" font-family="Times,serif" font-size="14.00">apply(args, kwargs, link, link_error, task_id, retries, throw, logfile, loglevel, headers)</text>
<text text-anchor="start" x="380" y="-896.8" font-family="Times,serif" font-size="14.00">apply_async(args, kwargs, task_id, producer, link, link_error, shadow)</text>
<text text-anchor="start" x="380" y="-881.8" font-family="Times,serif" font-size="14.00">bind(cls, app)</text>
<text text-anchor="start" x="380" y="-866.8" font-family="Times,serif" font-size="14.00">chunks(it, n)</text>
<text text-anchor="start" x="380" y="-851.8" font-family="Times,serif" font-size="14.00">delay()</text>
<text text-anchor="start" x="380" y="-836.8" font-family="Times,serif" font-size="14.00">map(it)</text>
<text text-anchor="start" x="380" y="-821.8" font-family="Times,serif" font-size="14.00">on_bound(cls, app)</text>
<text text-anchor="start" x="380" y="-806.8" font-family="Times,serif" font-size="14.00">on_failure(exc, task_id, args, kwargs, einfo)</text>
<text text-anchor="start" x="380" y="-791.8" font-family="Times,serif" font-size="14.00">on_retry(exc, task_id, args, kwargs, einfo)</text>
<text text-anchor="start" x="380" y="-776.8" font-family="Times,serif" font-size="14.00">on_success(retval, task_id, args, kwargs)</text>
<text text-anchor="start" x="380" y="-761.8" font-family="Times,serif" font-size="14.00">pop_request()</text>
<text text-anchor="start" x="380" y="-746.8" font-family="Times,serif" font-size="14.00">push_request()</text>
<text text-anchor="start" x="380" y="-731.8" font-family="Times,serif" font-size="14.00">replace(sig)</text>
<text text-anchor="start" x="380" y="-716.8" font-family="Times,serif" font-size="14.00">retry(args, kwargs, exc, throw, eta, countdown, max_retries)</text>
<text text-anchor="start" x="380" y="-701.8" font-family="Times,serif" font-size="14.00">run()</text>
<text text-anchor="start" x="380" y="-686.8" font-family="Times,serif" font-size="14.00">s()</text>
<text text-anchor="start" x="380" y="-671.8" font-family="Times,serif" font-size="14.00">send_event(type_, retry, retry_policy)</text>
<text text-anchor="start" x="380" y="-656.8" font-family="Times,serif" font-size="14.00">shadow_name(args, kwargs, options)</text>
<text text-anchor="start" x="380" y="-641.8" font-family="Times,serif" font-size="14.00">si()</text>
<text text-anchor="start" x="380" y="-626.8" font-family="Times,serif" font-size="14.00">signature(args)</text>
<text text-anchor="start" x="380" y="-611.8" font-family="Times,serif" font-size="14.00">signature_from_request(request, args, kwargs, queue)</text>
<text text-anchor="start" x="380" y="-596.8" font-family="Times,serif" font-size="14.00">starmap(it)</text>
<text text-anchor="start" x="380" y="-581.8" font-family="Times,serif" font-size="14.00">start_strategy(app, consumer)</text>
<text text-anchor="start" x="380" y="-566.8" font-family="Times,serif" font-size="14.00">update_state(task_id, state, meta)</text>
</g>
<!-- 0&#45;&gt;2 -->
<g id="edge1" class="edge"><title>0&#45;&gt;2</title>
<path fill="none" stroke="black" d="M614,-295.676C614,-347.738 614,-442.92 614,-548.549"/>
<polygon fill="none" stroke="black" points="610.5,-548.803 614,-558.803 617.5,-548.803 610.5,-548.803"/>
</g>
<!-- 1 -->
<g id="node2" class="node"><title>1</title>
<polygon fill="none" stroke="black" points="787.5,-1 787.5,-505 948.5,-505 948.5,-1 787.5,-1"/>
<text text-anchor="middle" x="868" y="-489.8" font-family="Times,serif" font-size="14.00">celery.app.task.Context</text>
<polyline fill="none" stroke="black" points="787.5,-482 948.5,-482 "/>
<text text-anchor="start" x="795.5" y="-466.8" font-family="Times,serif" font-size="14.00">args : NoneType</text>
<text text-anchor="start" x="795.5" y="-451.8" font-family="Times,serif" font-size="14.00">callbacks : NoneType</text>
<text text-anchor="start" x="795.5" y="-436.8" font-family="Times,serif" font-size="14.00">called_directly : bool</text>
<text text-anchor="start" x="795.5" y="-421.8" font-family="Times,serif" font-size="14.00">chain : NoneType</text>
<text text-anchor="start" x="795.5" y="-406.8" font-family="Times,serif" font-size="14.00">children</text>
<text text-anchor="start" x="795.5" y="-391.8" font-family="Times,serif" font-size="14.00">chord : NoneType</text>
<text text-anchor="start" x="795.5" y="-376.8" font-family="Times,serif" font-size="14.00">correlation_id : NoneType</text>
<text text-anchor="start" x="795.5" y="-361.8" font-family="Times,serif" font-size="14.00">delivery_info : NoneType</text>
<text text-anchor="start" x="795.5" y="-346.8" font-family="Times,serif" font-size="14.00">errbacks : NoneType</text>
<text text-anchor="start" x="795.5" y="-331.8" font-family="Times,serif" font-size="14.00">eta : NoneType</text>
<text text-anchor="start" x="795.5" y="-316.8" font-family="Times,serif" font-size="14.00">expires : NoneType</text>
<text text-anchor="start" x="795.5" y="-301.8" font-family="Times,serif" font-size="14.00">group : NoneType</text>
<text text-anchor="start" x="795.5" y="-286.8" font-family="Times,serif" font-size="14.00">headers : NoneType</text>
<text text-anchor="start" x="795.5" y="-271.8" font-family="Times,serif" font-size="14.00">hostname : NoneType</text>
<text text-anchor="start" x="795.5" y="-256.8" font-family="Times,serif" font-size="14.00">id : NoneType</text>
<text text-anchor="start" x="795.5" y="-241.8" font-family="Times,serif" font-size="14.00">is_eager : bool</text>
<text text-anchor="start" x="795.5" y="-226.8" font-family="Times,serif" font-size="14.00">kwargs : NoneType</text>
<text text-anchor="start" x="795.5" y="-211.8" font-family="Times,serif" font-size="14.00">logfile : NoneType</text>
<text text-anchor="start" x="795.5" y="-196.8" font-family="Times,serif" font-size="14.00">loglevel : NoneType</text>
<text text-anchor="start" x="795.5" y="-181.8" font-family="Times,serif" font-size="14.00">origin : NoneType</text>
<text text-anchor="start" x="795.5" y="-166.8" font-family="Times,serif" font-size="14.00">parent_id : NoneType</text>
<text text-anchor="start" x="795.5" y="-151.8" font-family="Times,serif" font-size="14.00">reply_to : NoneType</text>
<text text-anchor="start" x="795.5" y="-136.8" font-family="Times,serif" font-size="14.00">retries : int</text>
<text text-anchor="start" x="795.5" y="-121.8" font-family="Times,serif" font-size="14.00">root_id : NoneType</text>
<text text-anchor="start" x="795.5" y="-106.8" font-family="Times,serif" font-size="14.00">taskset : NoneType</text>
<text text-anchor="start" x="795.5" y="-91.8" font-family="Times,serif" font-size="14.00">timelimit : NoneType</text>
<text text-anchor="start" x="795.5" y="-76.8" font-family="Times,serif" font-size="14.00">utc : NoneType</text>
<polyline fill="none" stroke="black" points="787.5,-69 948.5,-69 "/>
<text text-anchor="start" x="795.5" y="-53.8" font-family="Times,serif" font-size="14.00">as_execution_options()</text>
<text text-anchor="start" x="795.5" y="-38.8" font-family="Times,serif" font-size="14.00">clear()</text>
<text text-anchor="start" x="795.5" y="-23.8" font-family="Times,serif" font-size="14.00">get(key, default)</text>
<text text-anchor="start" x="795.5" y="-8.8" font-family="Times,serif" font-size="14.00">update()</text>
</g>
<!-- 1&#45;&gt;2 -->
<g id="edge5" class="edge"><title>1&#45;&gt;2</title>
<path fill="none" stroke="black" d="M787.894,-505.04C783.477,-518.882 778.972,-533 774.405,-547.313"/>
<polygon fill="black" stroke="black" points="774.378,-547.399 776.364,-554.331 770.73,-558.831 768.743,-551.899 774.378,-547.399"/>
<text text-anchor="middle" x="824.5" y="-528.3" font-family="Times,serif" font-size="14.00" fill="green">_default_request</text>
</g>
<!-- 3 -->
<g id="node4" class="node"><title>3</title>
<polygon fill="none" stroke="black" points="40.5,-1583 40.5,-1653 219.5,-1653 219.5,-1583 40.5,-1583"/>
<text text-anchor="middle" x="130" y="-1637.8" font-family="Times,serif" font-size="14.00" fill="red">celery.exceptions.CeleryError</text>
<polyline fill="none" stroke="black" points="40.5,-1630 219.5,-1630 "/>
<polyline fill="none" stroke="black" points="40.5,-1606 219.5,-1606 "/>
<text text-anchor="middle" x="130" y="-1590.8" font-family="Times,serif" font-size="14.00" fill="red"> </text>
</g>
<!-- 4 -->
<g id="node5" class="node"><title>4</title>
<polygon fill="none" stroke="black" points="0,-211 0,-295 260,-295 260,-211 0,-211"/>
<text text-anchor="middle" x="130" y="-279.8" font-family="Times,serif" font-size="14.00" fill="red">celery.exceptions.MaxRetriesExceededError</text>
<polyline fill="none" stroke="black" points="0,-272 260,-272 "/>
<text text-anchor="start" x="8" y="-256.8" font-family="Times,serif" font-size="14.00" fill="red">task_args</text>
<text text-anchor="start" x="8" y="-241.8" font-family="Times,serif" font-size="14.00" fill="red">task_kwargs</text>
<polyline fill="none" stroke="black" points="0,-234 260,-234 "/>
<text text-anchor="middle" x="130" y="-218.8" font-family="Times,serif" font-size="14.00" fill="red"> </text>
</g>
<!-- 5 -->
<g id="node6" class="node"><title>5</title>
<polygon fill="none" stroke="black" points="45,-1016 45,-1086 215,-1086 215,-1016 45,-1016"/>
<text text-anchor="middle" x="130" y="-1070.8" font-family="Times,serif" font-size="14.00" fill="red">celery.exceptions.TaskError</text>
<polyline fill="none" stroke="black" points="45,-1063 215,-1063 "/>
<polyline fill="none" stroke="black" points="45,-1039 215,-1039 "/>
<text text-anchor="middle" x="130" y="-1023.8" font-family="Times,serif" font-size="14.00" fill="red"> </text>
</g>
<!-- 4&#45;&gt;5 -->
<g id="edge2" class="edge"><title>4&#45;&gt;5</title>
<path fill="none" stroke="black" d="M130,-295.12C130,-431.02 130,-865.051 130,-1005.61"/>
<polygon fill="none" stroke="black" points="126.5,-1005.99 130,-1015.99 133.5,-1005.99 126.5,-1005.99"/>
</g>
<!-- 4&#45;&gt;2 -->
<g id="edge6" class="edge"><title>4&#45;&gt;2</title>
<path fill="none" stroke="black" d="M151.633,-295.023C178.35,-345.255 225.595,-432.698 269,-506 299.58,-557.643 332.501,-611.541 365.436,-664.478"/>
<polygon fill="black" stroke="black" points="365.459,-664.515 372.026,-667.493 371.804,-674.701 365.236,-671.723 365.459,-664.515"/>
<text text-anchor="middle" x="359.5" y="-528.3" font-family="Times,serif" font-size="14.00" fill="green">MaxRetriesExceededError</text>
</g>
<!-- 5&#45;&gt;3 -->
<g id="edge3" class="edge"><title>5&#45;&gt;3</title>
<path fill="none" stroke="black" d="M130,-1086.07C130,-1183.61 130,-1463.87 130,-1572.88"/>
<polygon fill="none" stroke="black" points="126.5,-1572.88 130,-1582.88 133.5,-1572.88 126.5,-1572.88"/>
</g>
<!-- 6 -->
<g id="node7" class="node"><title>6</title>
<polygon fill="none" stroke="black" points="278,-218 278,-288 440,-288 440,-218 278,-218"/>
<text text-anchor="middle" x="359" y="-272.8" font-family="Times,serif" font-size="14.00">celery.local.class_property</text>
<polyline fill="none" stroke="black" points="278,-265 440,-265 "/>
<polyline fill="none" stroke="black" points="278,-241 440,-241 "/>
<text text-anchor="start" x="286" y="-225.8" font-family="Times,serif" font-size="14.00">setter(setter)</text>
</g>
<!-- 6&#45;&gt;2 -->
<g id="edge7" class="edge"><title>6&#45;&gt;2</title>
<path fill="none" stroke="black" d="M369.957,-288.203C385.908,-337.996 417.499,-436.608 452.803,-546.812"/>
<polygon fill="black" stroke="black" points="452.903,-547.126 458.543,-551.62 456.564,-558.554 450.925,-554.06 452.903,-547.126"/>
<text text-anchor="middle" x="459" y="-528.3" font-family="Times,serif" font-size="14.00" fill="green">app</text>
</g>
<!-- 7 -->
<g id="node8" class="node"><title>7</title>
<polygon fill="none" stroke="black" points="990,-1016 990,-1086 1180,-1086 1180,-1016 990,-1016"/>
<text text-anchor="middle" x="1085" y="-1070.8" font-family="Times,serif" font-size="14.00" fill="red">kombu.exceptions.KombuError</text>
<polyline fill="none" stroke="black" points="990,-1063 1180,-1063 "/>
<polyline fill="none" stroke="black" points="990,-1039 1180,-1039 "/>
<text text-anchor="middle" x="1085" y="-1023.8" font-family="Times,serif" font-size="14.00" fill="red"> </text>
</g>
<!-- 8 -->
<g id="node9" class="node"><title>8</title>
<polygon fill="none" stroke="black" points="975,-218 975,-288 1187,-288 1187,-218 975,-218"/>
<text text-anchor="middle" x="1081" y="-272.8" font-family="Times,serif" font-size="14.00" fill="red">kombu.exceptions.OperationalError</text>
<polyline fill="none" stroke="black" points="975,-265 1187,-265 "/>
<polyline fill="none" stroke="black" points="975,-241 1187,-241 "/>
<text text-anchor="middle" x="1081" y="-225.8" font-family="Times,serif" font-size="14.00" fill="red"> </text>
</g>
<!-- 8&#45;&gt;7 -->
<g id="edge4" class="edge"><title>8&#45;&gt;7</title>
<path fill="none" stroke="black" d="M1081.17,-288.203C1081.81,-415.65 1084.06,-862.921 1084.78,-1005.78"/>
<polygon fill="none" stroke="black" points="1081.28,-1005.94 1084.83,-1015.92 1088.28,-1005.91 1081.28,-1005.94"/>
</g>
<!-- 8&#45;&gt;2 -->
<g id="edge8" class="edge"><title>8&#45;&gt;2</title>
<path fill="none" stroke="black" d="M1065.66,-288.005C1043.25,-336.971 999.602,-429.823 957,-506 927.498,-558.754 895.134,-613.523 862.439,-667.096"/>
<polygon fill="black" stroke="black" points="862.375,-667.202 862.657,-674.407 856.114,-677.439 855.832,-670.233 862.375,-667.202"/>
<text text-anchor="middle" x="986.5" y="-528.3" font-family="Times,serif" font-size="14.00" fill="green">OperationalError</text>
</g>
</g>
</svg>
