<?xml version="1.0" encoding="UTF-8" standalone="no"?>
<!DOCTYPE svg PUBLIC "-//W3C//DTD SVG 1.1//EN"
 "http://www.w3.org/Graphics/SVG/1.1/DTD/svg11.dtd">
<!-- Generated by graphviz version 2.30.1 (20180420.1509)
 -->
<!-- Title: packages Pages: 1 -->
<svg width="2146pt" height="44pt"
 viewBox="0.00 0.00 2146.00 44.00" xmlns="http://www.w3.org/2000/svg" xmlns:xlink="http://www.w3.org/1999/xlink">
<g id="graph0" class="graph" transform="scale(1 1) rotate(0) translate(4 40)">
<title>packages</title>
<polygon fill="white" stroke="white" points="-4,5 -4,-40 2143,-40 2143,5 -4,5"/>
<!-- 0 -->
<g id="node1" class="node"><title>0</title>
<polygon fill="none" stroke="black" points="232.5,-36 -0.5,-36 -0.5,-0 232.5,-0 232.5,-36"/>
<text text-anchor="middle" x="116" y="-14.3" font-family="Times,serif" font-size="14.00">/opt/OpsManage/apps/tasks/__init__.py</text>
</g>
<!-- 1 -->
<g id="node2" class="node"><title>1</title>
<polygon fill="none" stroke="black" points="483.5,-36 250.5,-36 250.5,-0 483.5,-0 483.5,-36"/>
<text text-anchor="middle" x="367" y="-14.3" font-family="Times,serif" font-size="14.00">/opt/OpsManage/apps/tasks/callback.py</text>
</g>
<!-- 2 -->
<g id="node3" class="node"><title>2</title>
<polygon fill="none" stroke="black" points="760.5,-36 501.5,-36 501.5,-0 760.5,-0 760.5,-36"/>
<text text-anchor="middle" x="631" y="-14.3" font-family="Times,serif" font-size="14.00">/opt/OpsManage/apps/tasks/celery_assets.py</text>
</g>
<!-- 3 -->
<g id="node4" class="node"><title>3</title>
<polygon fill="none" stroke="black" points="1043,-36 779,-36 779,-0 1043,-0 1043,-36"/>
<text text-anchor="middle" x="911" y="-14.3" font-family="Times,serif" font-size="14.00">/opt/OpsManage/apps/tasks/celery_deploy.py</text>
</g>
<!-- 4 -->
<g id="node5" class="node"><title>4</title>
<polygon fill="none" stroke="black" points="1321,-36 1061,-36 1061,-0 1321,-0 1321,-36"/>
<text text-anchor="middle" x="1191" y="-14.3" font-family="Times,serif" font-size="14.00">/opt/OpsManage/apps/tasks/celery_notice.py</text>
</g>
<!-- 5 -->
<g id="node6" class="node"><title>5</title>
<polygon fill="none" stroke="black" points="1600.5,-36 1339.5,-36 1339.5,-0 1600.5,-0 1600.5,-36"/>
<text text-anchor="middle" x="1470" y="-14.3" font-family="Times,serif" font-size="14.00">/opt/OpsManage/apps/tasks/celery_orders.py</text>
</g>
<!-- 6 -->
<g id="node7" class="node"><title>6</title>
<polygon fill="none" stroke="black" points="1877,-36 1619,-36 1619,-0 1877,-0 1877,-36"/>
<text text-anchor="middle" x="1748" y="-14.3" font-family="Times,serif" font-size="14.00">/opt/OpsManage/apps/tasks/celery_sched.py</text>
</g>
<!-- 7 -->
<g id="node8" class="node"><title>7</title>
<polygon fill="none" stroke="black" points="2138.5,-36 1895.5,-36 1895.5,-0 2138.5,-0 2138.5,-36"/>
<text text-anchor="middle" x="2017" y="-14.3" font-family="Times,serif" font-size="14.00">/opt/OpsManage/apps/tasks/celery_sql.py</text>
</g>
</g>
</svg>
