<?xml version="1.0" encoding="UTF-8" standalone="no"?>
<!DOCTYPE svg PUBLIC "-//W3C//DTD SVG 1.1//EN"
 "http://www.w3.org/Graphics/SVG/1.1/DTD/svg11.dtd">
<!-- Generated by graphviz version 2.30.1 (20180420.1509)
 -->
<!-- Title: packages Pages: 1 -->
<svg width="2892pt" height="44pt"
 viewBox="0.00 0.00 2892.00 44.00" xmlns="http://www.w3.org/2000/svg" xmlns:xlink="http://www.w3.org/1999/xlink">
<g id="graph0" class="graph" transform="scale(1 1) rotate(0) translate(4 40)">
<title>packages</title>
<polygon fill="white" stroke="white" points="-4,5 -4,-40 2889,-40 2889,5 -4,5"/>
<!-- 0 -->
<g id="node1" class="node"><title>0</title>
<polygon fill="none" stroke="black" points="248,-36 0,-36 0,-0 248,-0 248,-36"/>
<text text-anchor="middle" x="124" y="-14.3" font-family="Times,serif" font-size="14.00">/opt/OpsManage/apps/account/__init__.py</text>
</g>
<!-- 1 -->
<g id="node2" class="node"><title>1</title>
<polygon fill="none" stroke="black" points="503.5,-36 266.5,-36 266.5,-0 503.5,-0 503.5,-36"/>
<text text-anchor="middle" x="385" y="-14.3" font-family="Times,serif" font-size="14.00">/opt/OpsManage/apps/account/admin.py</text>
</g>
<!-- 2 -->
<g id="node3" class="node"><title>2</title>
<polygon fill="none" stroke="black" points="748.5,-36 521.5,-36 521.5,-0 748.5,-0 748.5,-36"/>
<text text-anchor="middle" x="635" y="-14.3" font-family="Times,serif" font-size="14.00">/opt/OpsManage/apps/account/apps.py</text>
</g>
<!-- 3 -->
<g id="node4" class="node"><title>3</title>
<polygon fill="none" stroke="black" points="1019.5,-36 766.5,-36 766.5,-0 1019.5,-0 1019.5,-36"/>
<text text-anchor="middle" x="893" y="-14.3" font-family="Times,serif" font-size="14.00">/opt/OpsManage/apps/account/backends.py</text>
</g>
<!-- 4 -->
<g id="node5" class="node"><title>4</title>
<polygon fill="none" stroke="black" points="1368,-36 1038,-36 1038,-0 1368,-0 1368,-36"/>
<text text-anchor="middle" x="1203" y="-14.3" font-family="Times,serif" font-size="14.00">/opt/OpsManage/apps/account/migrations/0001_initial.py</text>
</g>
<!-- 5 -->
<g id="node6" class="node"><title>5</title>
<polygon fill="none" stroke="black" points="1802,-36 1386,-36 1386,-0 1802,-0 1802,-36"/>
<text text-anchor="middle" x="1594" y="-14.3" font-family="Times,serif" font-size="14.00">/opt/OpsManage/apps/account/migrations/0002_auto_20200426_0937.py</text>
</g>
<!-- 6 -->
<g id="node7" class="node"><title>6</title>
<polygon fill="none" stroke="black" points="2130,-36 1820,-36 1820,-0 2130,-0 2130,-36"/>
<text text-anchor="middle" x="1975" y="-14.3" font-family="Times,serif" font-size="14.00">/opt/OpsManage/apps/account/migrations/__init__.py</text>
</g>
<!-- 7 -->
<g id="node8" class="node"><title>7</title>
<polygon fill="none" stroke="black" points="2390,-36 2148,-36 2148,-0 2390,-0 2390,-36"/>
<text text-anchor="middle" x="2269" y="-14.3" font-family="Times,serif" font-size="14.00">/opt/OpsManage/apps/account/models.py</text>
</g>
<!-- 8 -->
<g id="node9" class="node"><title>8</title>
<polygon fill="none" stroke="black" points="2631.5,-36 2408.5,-36 2408.5,-0 2631.5,-0 2631.5,-36"/>
<text text-anchor="middle" x="2520" y="-14.3" font-family="Times,serif" font-size="14.00">/opt/OpsManage/apps/account/urls.py</text>
</g>
<!-- 9 -->
<g id="node10" class="node"><title>9</title>
<polygon fill="none" stroke="black" points="2884,-36 2650,-36 2650,-0 2884,-0 2884,-36"/>
<text text-anchor="middle" x="2767" y="-14.3" font-family="Times,serif" font-size="14.00">/opt/OpsManage/apps/account/views.py</text>
</g>
</g>
</svg>
