<?xml version="1.0" encoding="UTF-8" standalone="no"?>
<!DOCTYPE svg PUBLIC "-//W3C//DTD SVG 1.1//EN"
 "http://www.w3.org/Graphics/SVG/1.1/DTD/svg11.dtd">
<!-- Generated by graphviz version 2.30.1 (20180420.1509)
 -->
<!-- Title: packages Pages: 1 -->
<svg width="3300pt" height="44pt"
 viewBox="0.00 0.00 3300.00 44.00" xmlns="http://www.w3.org/2000/svg" xmlns:xlink="http://www.w3.org/1999/xlink">
<g id="graph0" class="graph" transform="scale(1 1) rotate(0) translate(4 40)">
<title>packages</title>
<polygon fill="white" stroke="white" points="-4,5 -4,-40 3297,-40 3297,5 -4,5"/>
<!-- 0 -->
<g id="node1" class="node"><title>0</title>
<polygon fill="none" stroke="black" points="236,-36 0,-36 0,-0 236,-0 236,-36"/>
<text text-anchor="middle" x="118" y="-14.3" font-family="Times,serif" font-size="14.00">/opt/OpsManage/apps/apply/__init__.py</text>
</g>
<!-- 1 -->
<g id="node2" class="node"><title>1</title>
<polygon fill="none" stroke="black" points="508,-36 254,-36 254,-0 508,-0 508,-36"/>
<text text-anchor="middle" x="381" y="-14.3" font-family="Times,serif" font-size="14.00">/opt/OpsManage/apps/apply/comsumers.py</text>
</g>
<!-- 2 -->
<g id="node3" class="node"><title>2</title>
<polygon fill="none" stroke="black" points="788,-36 526,-36 526,-0 788,-0 788,-36"/>
<text text-anchor="middle" x="657" y="-14.3" font-family="Times,serif" font-size="14.00">/opt/OpsManage/apps/apply/ipvs/__init__.py</text>
</g>
<!-- 3 -->
<g id="node4" class="node"><title>3</title>
<polygon fill="none" stroke="black" points="1054,-36 806,-36 806,-0 1054,-0 1054,-36"/>
<text text-anchor="middle" x="930" y="-14.3" font-family="Times,serif" font-size="14.00">/opt/OpsManage/apps/apply/ipvs/views.py</text>
</g>
<!-- 4 -->
<g id="node5" class="node"><title>4</title>
<polygon fill="none" stroke="black" points="1330,-36 1072,-36 1072,-0 1330,-0 1330,-36"/>
<text text-anchor="middle" x="1201" y="-14.3" font-family="Times,serif" font-size="14.00">/opt/OpsManage/apps/apply/k8s/__init__.py</text>
</g>
<!-- 5 -->
<g id="node6" class="node"><title>5</title>
<polygon fill="none" stroke="black" points="1593.5,-36 1348.5,-36 1348.5,-0 1593.5,-0 1593.5,-36"/>
<text text-anchor="middle" x="1471" y="-14.3" font-family="Times,serif" font-size="14.00">/opt/OpsManage/apps/apply/k8s/views.py</text>
</g>
<!-- 6 -->
<g id="node7" class="node"><title>6</title>
<polygon fill="none" stroke="black" points="1930,-36 1612,-36 1612,-0 1930,-0 1930,-36"/>
<text text-anchor="middle" x="1771" y="-14.3" font-family="Times,serif" font-size="14.00">/opt/OpsManage/apps/apply/migrations/0001_initial.py</text>
</g>
<!-- 7 -->
<g id="node8" class="node"><title>7</title>
<polygon fill="none" stroke="black" points="2246,-36 1948,-36 1948,-0 2246,-0 2246,-36"/>
<text text-anchor="middle" x="2097" y="-14.3" font-family="Times,serif" font-size="14.00">/opt/OpsManage/apps/apply/migrations/__init__.py</text>
</g>
<!-- 8 -->
<g id="node9" class="node"><title>8</title>
<polygon fill="none" stroke="black" points="2494,-36 2264,-36 2264,-0 2494,-0 2494,-36"/>
<text text-anchor="middle" x="2379" y="-14.3" font-family="Times,serif" font-size="14.00">/opt/OpsManage/apps/apply/models.py</text>
</g>
<!-- 9 -->
<g id="node10" class="node"><title>9</title>
<polygon fill="none" stroke="black" points="2790,-36 2512,-36 2512,-0 2790,-0 2790,-36"/>
<text text-anchor="middle" x="2651" y="-14.3" font-family="Times,serif" font-size="14.00">/opt/OpsManage/apps/apply/service/__init__.py</text>
</g>
<!-- 10 -->
<g id="node11" class="node"><title>10</title>
<polygon fill="none" stroke="black" points="3063.5,-36 2808.5,-36 2808.5,-0 3063.5,-0 3063.5,-36"/>
<text text-anchor="middle" x="2936" y="-14.3" font-family="Times,serif" font-size="14.00">/opt/OpsManage/apps/apply/service/ipvs.py</text>
</g>
<!-- 11 -->
<g id="node12" class="node"><title>11</title>
<polygon fill="none" stroke="black" points="3292.5,-36 3081.5,-36 3081.5,-0 3292.5,-0 3292.5,-36"/>
<text text-anchor="middle" x="3187" y="-14.3" font-family="Times,serif" font-size="14.00">/opt/OpsManage/apps/apply/urls.py</text>
</g>
</g>
</svg>
