<?xml version="1.0" encoding="UTF-8" standalone="no"?>
<!DOCTYPE svg PUBLIC "-//W3C//DTD SVG 1.1//EN"
 "http://www.w3.org/Graphics/SVG/1.1/DTD/svg11.dtd">
<!-- Generated by graphviz version 2.30.1 (20180420.1509)
 -->
<!-- Title: packages Pages: 1 -->
<svg width="2963pt" height="44pt"
 viewBox="0.00 0.00 2963.00 44.00" xmlns="http://www.w3.org/2000/svg" xmlns:xlink="http://www.w3.org/1999/xlink">
<g id="graph0" class="graph" transform="scale(1 1) rotate(0) translate(4 40)">
<title>packages</title>
<polygon fill="white" stroke="white" points="-4,5 -4,-40 2960,-40 2960,5 -4,5"/>
<!-- 0 -->
<g id="node1" class="node"><title>0</title>
<polygon fill="none" stroke="black" points="256.5,-36 -0.5,-36 -0.5,-0 256.5,-0 256.5,-36"/>
<text text-anchor="middle" x="128" y="-14.3" font-family="Times,serif" font-size="14.00">/opt/OpsManage/apps/databases/__init__.py</text>
</g>
<!-- 1 -->
<g id="node2" class="node"><title>1</title>
<polygon fill="none" stroke="black" points="521.5,-36 274.5,-36 274.5,-0 521.5,-0 521.5,-36"/>
<text text-anchor="middle" x="398" y="-14.3" font-family="Times,serif" font-size="14.00">/opt/OpsManage/apps/databases/admin.py</text>
</g>
<!-- 2 -->
<g id="node3" class="node"><title>2</title>
<polygon fill="none" stroke="black" points="776.5,-36 539.5,-36 539.5,-0 776.5,-0 776.5,-36"/>
<text text-anchor="middle" x="658" y="-14.3" font-family="Times,serif" font-size="14.00">/opt/OpsManage/apps/databases/apps.py</text>
</g>
<!-- 3 -->
<g id="node4" class="node"><title>3</title>
<polygon fill="none" stroke="black" points="1135,-36 795,-36 795,-0 1135,-0 1135,-36"/>
<text text-anchor="middle" x="965" y="-14.3" font-family="Times,serif" font-size="14.00">/opt/OpsManage/apps/databases/migrations/0001_initial.py</text>
</g>
<!-- 4 -->
<g id="node5" class="node"><title>4</title>
<polygon fill="none" stroke="black" points="1579,-36 1153,-36 1153,-0 1579,-0 1579,-36"/>
<text text-anchor="middle" x="1366" y="-14.3" font-family="Times,serif" font-size="14.00">/opt/OpsManage/apps/databases/migrations/0002_auto_20200426_1046.py</text>
</g>
<!-- 5 -->
<g id="node6" class="node"><title>5</title>
<polygon fill="none" stroke="black" points="1917,-36 1597,-36 1597,-0 1917,-0 1917,-36"/>
<text text-anchor="middle" x="1757" y="-14.3" font-family="Times,serif" font-size="14.00">/opt/OpsManage/apps/databases/migrations/__init__.py</text>
</g>
<!-- 6 -->
<g id="node7" class="node"><title>6</title>
<polygon fill="none" stroke="black" points="2187,-36 1935,-36 1935,-0 2187,-0 2187,-36"/>
<text text-anchor="middle" x="2061" y="-14.3" font-family="Times,serif" font-size="14.00">/opt/OpsManage/apps/databases/models.py</text>
</g>
<!-- 7 -->
<g id="node8" class="node"><title>7</title>
<polygon fill="none" stroke="black" points="2441,-36 2205,-36 2205,-0 2441,-0 2441,-36"/>
<text text-anchor="middle" x="2323" y="-14.3" font-family="Times,serif" font-size="14.00">/opt/OpsManage/apps/databases/tests.py</text>
</g>
<!-- 8 -->
<g id="node9" class="node"><title>8</title>
<polygon fill="none" stroke="black" points="2692.5,-36 2459.5,-36 2459.5,-0 2692.5,-0 2692.5,-36"/>
<text text-anchor="middle" x="2576" y="-14.3" font-family="Times,serif" font-size="14.00">/opt/OpsManage/apps/databases/urls.py</text>
</g>
<!-- 9 -->
<g id="node10" class="node"><title>9</title>
<polygon fill="none" stroke="black" points="2955,-36 2711,-36 2711,-0 2955,-0 2955,-36"/>
<text text-anchor="middle" x="2833" y="-14.3" font-family="Times,serif" font-size="14.00">/opt/OpsManage/apps/databases/views.py</text>
</g>
</g>
</svg>
