<?xml version="1.0" encoding="UTF-8" standalone="no"?>
<!DOCTYPE svg PUBLIC "-//W3C//DTD SVG 1.1//EN"
 "http://www.w3.org/Graphics/SVG/1.1/DTD/svg11.dtd">
<!-- Generated by graphviz version 2.30.1 (20180420.1509)
 -->
<!-- Title: packages Pages: 1 -->
<svg width="3209pt" height="44pt"
 viewBox="0.00 0.00 3209.00 44.00" xmlns="http://www.w3.org/2000/svg" xmlns:xlink="http://www.w3.org/1999/xlink">
<g id="graph0" class="graph" transform="scale(1 1) rotate(0) translate(4 40)">
<title>packages</title>
<polygon fill="white" stroke="white" points="-4,5 -4,-40 3206,-40 3206,5 -4,5"/>
<!-- 0 -->
<g id="node1" class="node"><title>0</title>
<polygon fill="none" stroke="black" points="238.5,-36 -0.5,-36 -0.5,-0 238.5,-0 238.5,-36"/>
<text text-anchor="middle" x="119" y="-14.3" font-family="Times,serif" font-size="14.00">/opt/OpsManage/apps/orders/__init__.py</text>
</g>
<!-- 1 -->
<g id="node2" class="node"><title>1</title>
<polygon fill="none" stroke="black" points="485.5,-36 256.5,-36 256.5,-0 485.5,-0 485.5,-36"/>
<text text-anchor="middle" x="371" y="-14.3" font-family="Times,serif" font-size="14.00">/opt/OpsManage/apps/orders/admin.py</text>
</g>
<!-- 2 -->
<g id="node3" class="node"><title>2</title>
<polygon fill="none" stroke="black" points="722.5,-36 503.5,-36 503.5,-0 722.5,-0 722.5,-36"/>
<text text-anchor="middle" x="613" y="-14.3" font-family="Times,serif" font-size="14.00">/opt/OpsManage/apps/orders/apps.py</text>
</g>
<!-- 3 -->
<g id="node4" class="node"><title>3</title>
<polygon fill="none" stroke="black" points="1063,-36 741,-36 741,-0 1063,-0 1063,-36"/>
<text text-anchor="middle" x="902" y="-14.3" font-family="Times,serif" font-size="14.00">/opt/OpsManage/apps/orders/migrations/0001_initial.py</text>
</g>
<!-- 4 -->
<g id="node5" class="node"><title>4</title>
<polygon fill="none" stroke="black" points="1489,-36 1081,-36 1081,-0 1489,-0 1489,-36"/>
<text text-anchor="middle" x="1285" y="-14.3" font-family="Times,serif" font-size="14.00">/opt/OpsManage/apps/orders/migrations/0002_auto_20200407_1743.py</text>
</g>
<!-- 5 -->
<g id="node6" class="node"><title>5</title>
<polygon fill="none" stroke="black" points="1915,-36 1507,-36 1507,-0 1915,-0 1915,-36"/>
<text text-anchor="middle" x="1711" y="-14.3" font-family="Times,serif" font-size="14.00">/opt/OpsManage/apps/orders/migrations/0003_auto_20200426_0937.py</text>
</g>
<!-- 6 -->
<g id="node7" class="node"><title>6</title>
<polygon fill="none" stroke="black" points="2235,-36 1933,-36 1933,-0 2235,-0 2235,-36"/>
<text text-anchor="middle" x="2084" y="-14.3" font-family="Times,serif" font-size="14.00">/opt/OpsManage/apps/orders/migrations/__init__.py</text>
</g>
<!-- 7 -->
<g id="node8" class="node"><title>7</title>
<polygon fill="none" stroke="black" points="2487,-36 2253,-36 2253,-0 2487,-0 2487,-36"/>
<text text-anchor="middle" x="2370" y="-14.3" font-family="Times,serif" font-size="14.00">/opt/OpsManage/apps/orders/models.py</text>
</g>
<!-- 8 -->
<g id="node9" class="node"><title>8</title>
<polygon fill="none" stroke="black" points="2723,-36 2505,-36 2505,-0 2723,-0 2723,-36"/>
<text text-anchor="middle" x="2614" y="-14.3" font-family="Times,serif" font-size="14.00">/opt/OpsManage/apps/orders/tests.py</text>
</g>
<!-- 9 -->
<g id="node10" class="node"><title>9</title>
<polygon fill="none" stroke="black" points="2956.5,-36 2741.5,-36 2741.5,-0 2956.5,-0 2956.5,-36"/>
<text text-anchor="middle" x="2849" y="-14.3" font-family="Times,serif" font-size="14.00">/opt/OpsManage/apps/orders/urls.py</text>
</g>
<!-- 10 -->
<g id="node11" class="node"><title>10</title>
<polygon fill="none" stroke="black" points="3201,-36 2975,-36 2975,-0 3201,-0 3201,-36"/>
<text text-anchor="middle" x="3088" y="-14.3" font-family="Times,serif" font-size="14.00">/opt/OpsManage/apps/orders/views.py</text>
</g>
</g>
</svg>
