<?xml version="1.0" encoding="UTF-8" standalone="no"?>
<!DOCTYPE svg PUBLIC "-//W3C//DTD SVG 1.1//EN"
 "http://www.w3.org/Graphics/SVG/1.1/DTD/svg11.dtd">
<!-- Generated by graphviz version 2.30.1 (20180420.1509)
 -->
<!-- Title: packages Pages: 1 -->
<svg width="2710pt" height="44pt"
 viewBox="0.00 0.00 2710.00 44.00" xmlns="http://www.w3.org/2000/svg" xmlns:xlink="http://www.w3.org/1999/xlink">
<g id="graph0" class="graph" transform="scale(1 1) rotate(0) translate(4 40)">
<title>packages</title>
<polygon fill="white" stroke="white" points="-4,5 -4,-40 2707,-40 2707,5 -4,5"/>
<!-- 0 -->
<g id="node1" class="node"><title>0</title>
<polygon fill="none" stroke="black" points="232,-36 0,-36 0,-0 232,-0 232,-36"/>
<text text-anchor="middle" x="116" y="-14.3" font-family="Times,serif" font-size="14.00">/opt/OpsManage/apps/asset/__init__.py</text>
</g>
<!-- 1 -->
<g id="node2" class="node"><title>1</title>
<polygon fill="none" stroke="black" points="471.5,-36 250.5,-36 250.5,-0 471.5,-0 471.5,-36"/>
<text text-anchor="middle" x="361" y="-14.3" font-family="Times,serif" font-size="14.00">/opt/OpsManage/apps/asset/admin.py</text>
</g>
<!-- 2 -->
<g id="node3" class="node"><title>2</title>
<polygon fill="none" stroke="black" points="702,-36 490,-36 490,-0 702,-0 702,-36"/>
<text text-anchor="middle" x="596" y="-14.3" font-family="Times,serif" font-size="14.00">/opt/OpsManage/apps/asset/apps.py</text>
</g>
<!-- 3 -->
<g id="node4" class="node"><title>3</title>
<polygon fill="none" stroke="black" points="1034,-36 720,-36 720,-0 1034,-0 1034,-36"/>
<text text-anchor="middle" x="877" y="-14.3" font-family="Times,serif" font-size="14.00">/opt/OpsManage/apps/asset/migrations/0001_initial.py</text>
</g>
<!-- 4 -->
<g id="node5" class="node"><title>4</title>
<polygon fill="none" stroke="black" points="1453.5,-36 1052.5,-36 1052.5,-0 1453.5,-0 1453.5,-36"/>
<text text-anchor="middle" x="1253" y="-14.3" font-family="Times,serif" font-size="14.00">/opt/OpsManage/apps/asset/migrations/0002_auto_20200426_1046.py</text>
</g>
<!-- 5 -->
<g id="node6" class="node"><title>5</title>
<polygon fill="none" stroke="black" points="1766,-36 1472,-36 1472,-0 1766,-0 1766,-36"/>
<text text-anchor="middle" x="1619" y="-14.3" font-family="Times,serif" font-size="14.00">/opt/OpsManage/apps/asset/migrations/__init__.py</text>
</g>
<!-- 6 -->
<g id="node7" class="node"><title>6</title>
<polygon fill="none" stroke="black" points="2011.5,-36 1784.5,-36 1784.5,-0 2011.5,-0 2011.5,-36"/>
<text text-anchor="middle" x="1898" y="-14.3" font-family="Times,serif" font-size="14.00">/opt/OpsManage/apps/asset/models.py</text>
</g>
<!-- 7 -->
<g id="node8" class="node"><title>7</title>
<polygon fill="none" stroke="black" points="2240.5,-36 2029.5,-36 2029.5,-0 2240.5,-0 2240.5,-36"/>
<text text-anchor="middle" x="2135" y="-14.3" font-family="Times,serif" font-size="14.00">/opt/OpsManage/apps/asset/tests.py</text>
</g>
<!-- 8 -->
<g id="node9" class="node"><title>8</title>
<polygon fill="none" stroke="black" points="2465.5,-36 2258.5,-36 2258.5,-0 2465.5,-0 2465.5,-36"/>
<text text-anchor="middle" x="2362" y="-14.3" font-family="Times,serif" font-size="14.00">/opt/OpsManage/apps/asset/urls.py</text>
</g>
<!-- 9 -->
<g id="node10" class="node"><title>9</title>
<polygon fill="none" stroke="black" points="2702,-36 2484,-36 2484,-0 2702,-0 2702,-36"/>
<text text-anchor="middle" x="2593" y="-14.3" font-family="Times,serif" font-size="14.00">/opt/OpsManage/apps/asset/views.py</text>
</g>
</g>
</svg>
