<?xml version="1.0" encoding="UTF-8" standalone="no"?>
<!DOCTYPE svg PUBLIC "-//W3C//DTD SVG 1.1//EN"
 "http://www.w3.org/Graphics/SVG/1.1/DTD/svg11.dtd">
<!-- Generated by graphviz version 2.30.1 (20180420.1509)
 -->
<!-- Title: packages Pages: 1 -->
<svg width="2043pt" height="44pt"
 viewBox="0.00 0.00 2043.00 44.00" xmlns="http://www.w3.org/2000/svg" xmlns:xlink="http://www.w3.org/1999/xlink">
<g id="graph0" class="graph" transform="scale(1 1) rotate(0) translate(4 40)">
<title>packages</title>
<polygon fill="white" stroke="white" points="-4,5 -4,-40 2040,-40 2040,5 -4,5"/>
<!-- 0 -->
<g id="node1" class="node"><title>0</title>
<polygon fill="none" stroke="black" points="230,-36 0,-36 0,-0 230,-0 230,-36"/>
<text text-anchor="middle" x="115" y="-14.3" font-family="Times,serif" font-size="14.00">/opt/OpsManage/apps/wiki/__init__.py</text>
</g>
<!-- 1 -->
<g id="node2" class="node"><title>1</title>
<polygon fill="none" stroke="black" points="467.5,-36 248.5,-36 248.5,-0 467.5,-0 467.5,-36"/>
<text text-anchor="middle" x="358" y="-14.3" font-family="Times,serif" font-size="14.00">/opt/OpsManage/apps/wiki/admin.py</text>
</g>
<!-- 2 -->
<g id="node3" class="node"><title>2</title>
<polygon fill="none" stroke="black" points="694.5,-36 485.5,-36 485.5,-0 694.5,-0 694.5,-36"/>
<text text-anchor="middle" x="590" y="-14.3" font-family="Times,serif" font-size="14.00">/opt/OpsManage/apps/wiki/apps.py</text>
</g>
<!-- 3 -->
<g id="node4" class="node"><title>3</title>
<polygon fill="none" stroke="black" points="1025,-36 713,-36 713,-0 1025,-0 1025,-36"/>
<text text-anchor="middle" x="869" y="-14.3" font-family="Times,serif" font-size="14.00">/opt/OpsManage/apps/wiki/migrations/0001_initial.py</text>
</g>
<!-- 4 -->
<g id="node5" class="node"><title>4</title>
<polygon fill="none" stroke="black" points="1335,-36 1043,-36 1043,-0 1335,-0 1335,-36"/>
<text text-anchor="middle" x="1189" y="-14.3" font-family="Times,serif" font-size="14.00">/opt/OpsManage/apps/wiki/migrations/__init__.py</text>
</g>
<!-- 5 -->
<g id="node6" class="node"><title>5</title>
<polygon fill="none" stroke="black" points="1577,-36 1353,-36 1353,-0 1577,-0 1577,-36"/>
<text text-anchor="middle" x="1465" y="-14.3" font-family="Times,serif" font-size="14.00">/opt/OpsManage/apps/wiki/models.py</text>
</g>
<!-- 6 -->
<g id="node7" class="node"><title>6</title>
<polygon fill="none" stroke="black" points="1800.5,-36 1595.5,-36 1595.5,-0 1800.5,-0 1800.5,-36"/>
<text text-anchor="middle" x="1698" y="-14.3" font-family="Times,serif" font-size="14.00">/opt/OpsManage/apps/wiki/urls.py</text>
</g>
<!-- 7 -->
<g id="node8" class="node"><title>7</title>
<polygon fill="none" stroke="black" points="2035,-36 1819,-36 1819,-0 2035,-0 2035,-36"/>
<text text-anchor="middle" x="1927" y="-14.3" font-family="Times,serif" font-size="14.00">/opt/OpsManage/apps/wiki/views.py</text>
</g>
</g>
</svg>
